M48
; DRILL file {KiCad 7.0.11+dfsg-1build4} date Thu Oct  8 14:05:09 2026
; FORMAT={-:-/ absolute / metric / decimal}
; #@! TF.CreationDate,2026-10-08T14:05:09+00:00
; #@! TF.GenerationSoftware,Kicad,Pcbnew,7.0.11+dfsg-1build4
; #@! TF.FileFunction,MixedPlating,1,2
FMAT,2
METRIC
; #@! TA.AperFunction,Plated,PTH,ViaDrill
T1C0.400
; #@! TA.AperFunction,Plated,PTH,ComponentDrill
T2C0.800
; #@! TA.AperFunction,Plated,PTH,ComponentDrill
T3C1.000
; #@! TA.AperFunction,NonPlated,NPTH,ComponentDrill
T4C3.200
%
G90
G05
T1
X11.75Y-17.0
X14.25Y-28.5
X18.0Y-44.5
X28.75Y-47.25
X29.0Y-40.5
X34.0Y-67.75
X41.0Y-54.75
X42.5Y-37.0
X45.5Y-11.5
X46.5Y-15.0
X46.5Y-30.25
X48.25Y-20.25
X49.5Y-22.75
X51.75Y-28.25
X55.75Y-56.75
X59.25Y-54.75
X62.0Y-67.75
X97.0Y-6.5
X97.0Y-69.5
T2
X6.0Y-31.0
X6.0Y-38.0
X6.0Y-46.0
X6.0Y-55.0
X8.0Y-12.0
X8.0Y-19.19
X8.0Y-26.81
X8.0Y-31.0
X8.5Y-46.0
X11.0Y-55.0
X12.0Y-31.0
X13.0Y-19.19
X13.0Y-26.81
X13.62Y-38.0
X14.0Y-46.0
X15.0Y-55.0
X15.62Y-12.0
X16.0Y-6.0
X16.0Y-46.0
X17.0Y-31.0
X18.0Y-38.0
X18.19Y-14.19
X18.19Y-16.73
X18.19Y-19.27
X18.19Y-21.81
X20.0Y-27.0
X20.0Y-46.0
X20.5Y-38.0
X21.0Y-6.0
X22.62Y-55.0
X24.0Y-6.0
X24.0Y-63.0
X25.0Y-27.0
X25.0Y-46.0
X25.81Y-14.19
X25.81Y-16.73
X25.81Y-19.27
X25.81Y-21.81
X26.0Y-55.0
X30.0Y-17.0
X30.0Y-38.0
X30.0Y-46.0
X31.0Y-24.0
X31.62Y-6.0
X31.62Y-63.0
X32.0Y-38.0
X33.0Y-24.0
X33.62Y-55.0
X35.0Y-46.0
X36.0Y-6.0
X36.0Y-58.0
X37.62Y-17.0
X41.0Y-6.0
X41.0Y-58.0
X49.59Y-27.0
X49.59Y-32.5
X57.21Y-27.0
X57.21Y-32.5
X89.5Y-41.0
X89.5Y-46.0
X97.12Y-41.0
X97.12Y-46.0
T3
X10.0Y-6.0
X10.0Y-8.54
X10.0Y-71.0
X12.54Y-71.0
X18.0Y-71.0
X20.54Y-71.0
X26.0Y-71.0
X28.54Y-71.0
X34.0Y-71.0
X36.54Y-71.0
X42.0Y-71.0
X44.0Y-10.0
X44.0Y-12.54
X44.0Y-15.08
X44.0Y-17.62
X44.0Y-20.16
X44.0Y-22.7
X44.0Y-25.24
X44.0Y-27.78
X44.0Y-30.32
X44.0Y-36.0
X44.0Y-38.54
X44.0Y-41.08
X44.0Y-43.62
X44.0Y-46.16
X44.0Y-48.7
X44.0Y-51.24
X44.0Y-53.78
X44.54Y-71.0
X47.08Y-71.0
X53.0Y-71.0
X55.54Y-71.0
X60.6Y-8.0
X60.6Y-10.54
X60.6Y-13.08
X60.6Y-15.62
X60.6Y-18.16
X60.6Y-20.7
X60.6Y-23.24
X60.6Y-25.78
X60.6Y-28.32
X60.6Y-30.86
X60.6Y-33.4
X60.6Y-35.94
X60.6Y-38.48
X60.6Y-41.02
X60.6Y-43.56
X60.6Y-46.1
X60.6Y-48.64
X60.6Y-51.18
X60.6Y-53.72
X86.0Y-8.0
X86.0Y-10.54
X86.0Y-13.08
X86.0Y-15.62
X86.0Y-18.16
X86.0Y-20.7
X86.0Y-23.24
X86.0Y-25.78
X86.0Y-28.32
X86.0Y-30.86
X86.0Y-33.4
X86.0Y-35.94
X86.0Y-38.48
X86.0Y-41.02
X86.0Y-43.56
X86.0Y-46.1
X86.0Y-48.64
X86.0Y-51.18
X86.0Y-53.72
T4
X4.0Y-4.0
X4.0Y-72.0
X96.0Y-4.0
X96.0Y-72.0
M30
