%TF.GenerationSoftware,KiCad,Pcbnew,7.0.11+dfsg-1build4*%
%TF.CreationDate,2026-10-08T14:05:09+00:00*%
%TF.ProjectId,hushrig_carrier,68757368-7269-4675-9f63-617272696572,rev?*%
%TF.SameCoordinates,Original*%
%TF.FileFunction,Soldermask,Top*%
%TF.FilePolarity,Negative*%
%FSLAX46Y46*%
G04 Gerber Fmt 4.6, Leading zero omitted, Abs format (unit mm)*
G04 Created by KiCad (PCBNEW 7.0.11+dfsg-1build4) date 2026-10-08 14:05:09*
%MOMM*%
%LPD*%
G01*
G04 APERTURE LIST*
%ADD10C,1.600000*%
%ADD11O,1.600000X1.600000*%
%ADD12R,1.700000X1.700000*%
%ADD13O,1.700000X1.700000*%
%ADD14R,1.600000X1.600000*%
%ADD15C,3.200000*%
G04 APERTURE END LIST*
D10*
%TO.C,R10*%
X89500000Y-46000000D03*
D11*
X97120000Y-46000000D03*
%TD*%
D10*
%TO.C,R2*%
X8000000Y-26809999D03*
D11*
X8000000Y-19189999D03*
%TD*%
D12*
%TO.C,J3*%
X44000000Y-10000000D03*
D13*
X44000000Y-12540000D03*
X44000000Y-15080000D03*
X44000000Y-17620000D03*
X44000000Y-20160000D03*
X44000000Y-22700000D03*
X44000000Y-25240000D03*
X44000000Y-27780000D03*
X44000000Y-30320000D03*
%TD*%
D10*
%TO.C,R6*%
X6000000Y-38000000D03*
D11*
X13620000Y-38000000D03*
%TD*%
D12*
%TO.C,J1*%
X60600000Y-8000000D03*
D13*
X60600000Y-10540000D03*
X60600000Y-13080000D03*
X60600000Y-15620000D03*
X60600000Y-18160000D03*
X60600000Y-20700000D03*
X60600000Y-23240000D03*
X60600000Y-25780000D03*
X60600000Y-28320000D03*
X60600000Y-30860000D03*
X60600000Y-33400000D03*
X60600000Y-35940000D03*
X60600000Y-38480000D03*
X60600000Y-41020000D03*
X60600000Y-43560000D03*
X60600000Y-46100000D03*
X60600000Y-48640000D03*
X60600000Y-51180000D03*
X60600000Y-53720000D03*
%TD*%
D12*
%TO.C,J10*%
X18000001Y-71000000D03*
D13*
X20540001Y-71000000D03*
%TD*%
D14*
%TO.C,C11*%
X14000000Y-46000000D03*
D10*
X16000000Y-46000000D03*
%TD*%
%TO.C,C14*%
X36000000Y-58000000D03*
X41000000Y-58000000D03*
%TD*%
D15*
%TO.C,H4*%
X96000000Y-72000000D03*
%TD*%
D10*
%TO.C,C13*%
X6000000Y-55000000D03*
X11000000Y-55000000D03*
%TD*%
D14*
%TO.C,C12*%
X30000000Y-38000000D03*
D10*
X32000000Y-38000000D03*
%TD*%
D15*
%TO.C,H3*%
X4000000Y-72000000D03*
%TD*%
D10*
%TO.C,R1*%
X8000000Y-12000000D03*
D11*
X15620000Y-12000000D03*
%TD*%
D10*
%TO.C,C10*%
X30000000Y-46000000D03*
X35000000Y-46000000D03*
%TD*%
D14*
%TO.C,C4*%
X6000000Y-31000000D03*
D10*
X8000000Y-31000000D03*
%TD*%
D14*
%TO.C,C8*%
X6000000Y-46000000D03*
D10*
X8500000Y-46000000D03*
%TD*%
%TO.C,R3*%
X13000000Y-26809999D03*
D11*
X13000000Y-19189999D03*
%TD*%
D10*
%TO.C,R7*%
X89500000Y-41000000D03*
D11*
X97120000Y-41000000D03*
%TD*%
D10*
%TO.C,R8*%
X57209999Y-32500000D03*
D11*
X49589999Y-32500000D03*
%TD*%
D12*
%TO.C,J6*%
X53000000Y-71000000D03*
D13*
X55540000Y-71000000D03*
%TD*%
D10*
%TO.C,R5*%
X30000000Y-17000000D03*
D11*
X37620000Y-17000000D03*
%TD*%
D10*
%TO.C,R9*%
X57209999Y-27000000D03*
D11*
X49589999Y-27000000D03*
%TD*%
D10*
%TO.C,C6*%
X20000000Y-27000000D03*
X25000000Y-27000000D03*
%TD*%
%TO.C,R4*%
X24000000Y-6000000D03*
D11*
X31620000Y-6000000D03*
%TD*%
D12*
%TO.C,J4*%
X44000000Y-36000000D03*
D13*
X44000000Y-38540000D03*
X44000000Y-41080000D03*
X44000000Y-43620000D03*
X44000000Y-46160000D03*
X44000000Y-48700000D03*
X44000000Y-51240000D03*
X44000000Y-53780000D03*
%TD*%
D14*
%TO.C,C3*%
X31000000Y-24000000D03*
D10*
X33000000Y-24000000D03*
%TD*%
%TO.C,R11*%
X15000000Y-55000000D03*
D11*
X22620000Y-55000000D03*
%TD*%
D12*
%TO.C,J9*%
X26000001Y-71000000D03*
D13*
X28540001Y-71000000D03*
%TD*%
D12*
%TO.C,J7*%
X42000001Y-71000000D03*
D13*
X44540001Y-71000000D03*
X47080001Y-71000000D03*
%TD*%
D15*
%TO.C,H2*%
X96000000Y-4000000D03*
%TD*%
D10*
%TO.C,C2*%
X36000000Y-6000000D03*
X41000000Y-6000000D03*
%TD*%
D15*
%TO.C,H1*%
X4000000Y-4000000D03*
%TD*%
D10*
%TO.C,C7*%
X12000000Y-31000000D03*
X17000000Y-31000000D03*
%TD*%
D12*
%TO.C,J11*%
X10000001Y-71000000D03*
D13*
X12540001Y-71000000D03*
%TD*%
D10*
%TO.C,C1*%
X16000000Y-6000000D03*
X21000000Y-6000000D03*
%TD*%
%TO.C,C9*%
X20000000Y-46000000D03*
X25000000Y-46000000D03*
%TD*%
D14*
%TO.C,C5*%
X18000000Y-38000000D03*
D10*
X20500000Y-38000000D03*
%TD*%
D12*
%TO.C,J5*%
X10000000Y-6000000D03*
D13*
X10000000Y-8540000D03*
%TD*%
D12*
%TO.C,J2*%
X86000000Y-8000000D03*
D13*
X86000000Y-10540000D03*
X86000000Y-13080000D03*
X86000000Y-15620000D03*
X86000000Y-18160000D03*
X86000000Y-20700000D03*
X86000000Y-23240000D03*
X86000000Y-25780000D03*
X86000000Y-28320000D03*
X86000000Y-30860000D03*
X86000000Y-33400000D03*
X86000000Y-35940000D03*
X86000000Y-38480000D03*
X86000000Y-41020000D03*
X86000000Y-43560000D03*
X86000000Y-46100000D03*
X86000000Y-48640000D03*
X86000000Y-51180000D03*
X86000000Y-53720000D03*
%TD*%
D10*
%TO.C,R12*%
X26000000Y-55000000D03*
D11*
X33620000Y-55000000D03*
%TD*%
D14*
%TO.C,U1*%
X25809999Y-21809999D03*
D11*
X25809999Y-19269999D03*
X25809999Y-16729999D03*
X25809999Y-14189999D03*
X18189999Y-14189999D03*
X18189999Y-16729999D03*
X18189999Y-19269999D03*
X18189999Y-21809999D03*
%TD*%
D10*
%TO.C,R13*%
X24000000Y-63000000D03*
D11*
X31620000Y-63000000D03*
%TD*%
D12*
%TO.C,J8*%
X34000000Y-71000000D03*
D13*
X36540000Y-71000000D03*
%TD*%
M02*
