%TF.GenerationSoftware,KiCad,Pcbnew,7.0.11+dfsg-1build4*%
%TF.CreationDate,2026-10-08T14:05:09+00:00*%
%TF.ProjectId,hushrig_carrier,68757368-7269-4675-9f63-617272696572,rev?*%
%TF.SameCoordinates,Original*%
%TF.FileFunction,Drillmap*%
%TF.FilePolarity,Positive*%
%FSLAX45Y45*%
G04 Gerber Fmt 4.5, Leading zero omitted, Abs format (unit mm)*
G04 Created by KiCad (PCBNEW 7.0.11+dfsg-1build4) date 2026-10-08 14:05:09*
%MOMM*%
%LPD*%
G01*
G04 APERTURE LIST*
%ADD10C,0.100000*%
%ADD11C,0.200000*%
%ADD12C,0.320000*%
G04 APERTURE END LIST*
D10*
X10000000Y-7600000D02*
X0Y-7600000D01*
X0Y0D02*
X10000000Y0D01*
X0Y-7600000D02*
X0Y0D01*
X10000000Y0D02*
X10000000Y-7600000D01*
D11*
D10*
X1155000Y-1680000D02*
X1195000Y-1720000D01*
X1195000Y-1680000D02*
X1155000Y-1720000D01*
X1405000Y-2830000D02*
X1445000Y-2870000D01*
X1445000Y-2830000D02*
X1405000Y-2870000D01*
X1780000Y-4430000D02*
X1820000Y-4470000D01*
X1820000Y-4430000D02*
X1780000Y-4470000D01*
X2855000Y-4705000D02*
X2895000Y-4745000D01*
X2895000Y-4705000D02*
X2855000Y-4745000D01*
X2880000Y-4030000D02*
X2920000Y-4070000D01*
X2920000Y-4030000D02*
X2880000Y-4070000D01*
X3380000Y-6755000D02*
X3420000Y-6795000D01*
X3420000Y-6755000D02*
X3380000Y-6795000D01*
X4080000Y-5455000D02*
X4120000Y-5495000D01*
X4120000Y-5455000D02*
X4080000Y-5495000D01*
X4230000Y-3680000D02*
X4270000Y-3720000D01*
X4270000Y-3680000D02*
X4230000Y-3720000D01*
X4530000Y-1130000D02*
X4570000Y-1170000D01*
X4570000Y-1130000D02*
X4530000Y-1170000D01*
X4630000Y-1480000D02*
X4670000Y-1520000D01*
X4670000Y-1480000D02*
X4630000Y-1520000D01*
X4630000Y-3005000D02*
X4670000Y-3045000D01*
X4670000Y-3005000D02*
X4630000Y-3045000D01*
X4805000Y-2005000D02*
X4845000Y-2045000D01*
X4845000Y-2005000D02*
X4805000Y-2045000D01*
X4930000Y-2255000D02*
X4970000Y-2295000D01*
X4970000Y-2255000D02*
X4930000Y-2295000D01*
X5155000Y-2805000D02*
X5195000Y-2845000D01*
X5195000Y-2805000D02*
X5155000Y-2845000D01*
X5555000Y-5655000D02*
X5595000Y-5695000D01*
X5595000Y-5655000D02*
X5555000Y-5695000D01*
X5905000Y-5455000D02*
X5945000Y-5495000D01*
X5945000Y-5455000D02*
X5905000Y-5495000D01*
X6180000Y-6755000D02*
X6220000Y-6795000D01*
X6220000Y-6755000D02*
X6180000Y-6795000D01*
X9680000Y-630000D02*
X9720000Y-670000D01*
X9720000Y-630000D02*
X9680000Y-670000D01*
X9680000Y-6930000D02*
X9720000Y-6970000D01*
X9720000Y-6930000D02*
X9680000Y-6970000D01*
X640000Y-3100000D02*
G75*
G03*
X560000Y-3100000I-40000J0D01*
G01*
X560000Y-3100000D02*
G75*
G03*
X640000Y-3100000I40000J0D01*
G01*
X640000Y-3800000D02*
G75*
G03*
X560000Y-3800000I-40000J0D01*
G01*
X560000Y-3800000D02*
G75*
G03*
X640000Y-3800000I40000J0D01*
G01*
X640000Y-4600000D02*
G75*
G03*
X560000Y-4600000I-40000J0D01*
G01*
X560000Y-4600000D02*
G75*
G03*
X640000Y-4600000I40000J0D01*
G01*
X640000Y-5500000D02*
G75*
G03*
X560000Y-5500000I-40000J0D01*
G01*
X560000Y-5500000D02*
G75*
G03*
X640000Y-5500000I40000J0D01*
G01*
X840000Y-1200000D02*
G75*
G03*
X760000Y-1200000I-40000J0D01*
G01*
X760000Y-1200000D02*
G75*
G03*
X840000Y-1200000I40000J0D01*
G01*
X840000Y-1919000D02*
G75*
G03*
X760000Y-1919000I-40000J0D01*
G01*
X760000Y-1919000D02*
G75*
G03*
X840000Y-1919000I40000J0D01*
G01*
X840000Y-2681000D02*
G75*
G03*
X760000Y-2681000I-40000J0D01*
G01*
X760000Y-2681000D02*
G75*
G03*
X840000Y-2681000I40000J0D01*
G01*
X840000Y-3100000D02*
G75*
G03*
X760000Y-3100000I-40000J0D01*
G01*
X760000Y-3100000D02*
G75*
G03*
X840000Y-3100000I40000J0D01*
G01*
X890000Y-4600000D02*
G75*
G03*
X810000Y-4600000I-40000J0D01*
G01*
X810000Y-4600000D02*
G75*
G03*
X890000Y-4600000I40000J0D01*
G01*
X1140000Y-5500000D02*
G75*
G03*
X1060000Y-5500000I-40000J0D01*
G01*
X1060000Y-5500000D02*
G75*
G03*
X1140000Y-5500000I40000J0D01*
G01*
X1240000Y-3100000D02*
G75*
G03*
X1160000Y-3100000I-40000J0D01*
G01*
X1160000Y-3100000D02*
G75*
G03*
X1240000Y-3100000I40000J0D01*
G01*
X1340000Y-1919000D02*
G75*
G03*
X1260000Y-1919000I-40000J0D01*
G01*
X1260000Y-1919000D02*
G75*
G03*
X1340000Y-1919000I40000J0D01*
G01*
X1340000Y-2681000D02*
G75*
G03*
X1260000Y-2681000I-40000J0D01*
G01*
X1260000Y-2681000D02*
G75*
G03*
X1340000Y-2681000I40000J0D01*
G01*
X1402000Y-3800000D02*
G75*
G03*
X1322000Y-3800000I-40000J0D01*
G01*
X1322000Y-3800000D02*
G75*
G03*
X1402000Y-3800000I40000J0D01*
G01*
X1440000Y-4600000D02*
G75*
G03*
X1360000Y-4600000I-40000J0D01*
G01*
X1360000Y-4600000D02*
G75*
G03*
X1440000Y-4600000I40000J0D01*
G01*
X1540000Y-5500000D02*
G75*
G03*
X1460000Y-5500000I-40000J0D01*
G01*
X1460000Y-5500000D02*
G75*
G03*
X1540000Y-5500000I40000J0D01*
G01*
X1602000Y-1200000D02*
G75*
G03*
X1522000Y-1200000I-40000J0D01*
G01*
X1522000Y-1200000D02*
G75*
G03*
X1602000Y-1200000I40000J0D01*
G01*
X1640000Y-600000D02*
G75*
G03*
X1560000Y-600000I-40000J0D01*
G01*
X1560000Y-600000D02*
G75*
G03*
X1640000Y-600000I40000J0D01*
G01*
X1640000Y-4600000D02*
G75*
G03*
X1560000Y-4600000I-40000J0D01*
G01*
X1560000Y-4600000D02*
G75*
G03*
X1640000Y-4600000I40000J0D01*
G01*
X1740000Y-3100000D02*
G75*
G03*
X1660000Y-3100000I-40000J0D01*
G01*
X1660000Y-3100000D02*
G75*
G03*
X1740000Y-3100000I40000J0D01*
G01*
X1840000Y-3800000D02*
G75*
G03*
X1760000Y-3800000I-40000J0D01*
G01*
X1760000Y-3800000D02*
G75*
G03*
X1840000Y-3800000I40000J0D01*
G01*
X1859000Y-1419000D02*
G75*
G03*
X1779000Y-1419000I-40000J0D01*
G01*
X1779000Y-1419000D02*
G75*
G03*
X1859000Y-1419000I40000J0D01*
G01*
X1859000Y-1673000D02*
G75*
G03*
X1779000Y-1673000I-40000J0D01*
G01*
X1779000Y-1673000D02*
G75*
G03*
X1859000Y-1673000I40000J0D01*
G01*
X1859000Y-1927000D02*
G75*
G03*
X1779000Y-1927000I-40000J0D01*
G01*
X1779000Y-1927000D02*
G75*
G03*
X1859000Y-1927000I40000J0D01*
G01*
X1859000Y-2181000D02*
G75*
G03*
X1779000Y-2181000I-40000J0D01*
G01*
X1779000Y-2181000D02*
G75*
G03*
X1859000Y-2181000I40000J0D01*
G01*
X2040000Y-2700000D02*
G75*
G03*
X1960000Y-2700000I-40000J0D01*
G01*
X1960000Y-2700000D02*
G75*
G03*
X2040000Y-2700000I40000J0D01*
G01*
X2040000Y-4600000D02*
G75*
G03*
X1960000Y-4600000I-40000J0D01*
G01*
X1960000Y-4600000D02*
G75*
G03*
X2040000Y-4600000I40000J0D01*
G01*
X2090000Y-3800000D02*
G75*
G03*
X2010000Y-3800000I-40000J0D01*
G01*
X2010000Y-3800000D02*
G75*
G03*
X2090000Y-3800000I40000J0D01*
G01*
X2140000Y-600000D02*
G75*
G03*
X2060000Y-600000I-40000J0D01*
G01*
X2060000Y-600000D02*
G75*
G03*
X2140000Y-600000I40000J0D01*
G01*
X2302000Y-5500000D02*
G75*
G03*
X2222000Y-5500000I-40000J0D01*
G01*
X2222000Y-5500000D02*
G75*
G03*
X2302000Y-5500000I40000J0D01*
G01*
X2440000Y-600000D02*
G75*
G03*
X2360000Y-600000I-40000J0D01*
G01*
X2360000Y-600000D02*
G75*
G03*
X2440000Y-600000I40000J0D01*
G01*
X2440000Y-6300000D02*
G75*
G03*
X2360000Y-6300000I-40000J0D01*
G01*
X2360000Y-6300000D02*
G75*
G03*
X2440000Y-6300000I40000J0D01*
G01*
X2540000Y-2700000D02*
G75*
G03*
X2460000Y-2700000I-40000J0D01*
G01*
X2460000Y-2700000D02*
G75*
G03*
X2540000Y-2700000I40000J0D01*
G01*
X2540000Y-4600000D02*
G75*
G03*
X2460000Y-4600000I-40000J0D01*
G01*
X2460000Y-4600000D02*
G75*
G03*
X2540000Y-4600000I40000J0D01*
G01*
X2621000Y-1419000D02*
G75*
G03*
X2541000Y-1419000I-40000J0D01*
G01*
X2541000Y-1419000D02*
G75*
G03*
X2621000Y-1419000I40000J0D01*
G01*
X2621000Y-1673000D02*
G75*
G03*
X2541000Y-1673000I-40000J0D01*
G01*
X2541000Y-1673000D02*
G75*
G03*
X2621000Y-1673000I40000J0D01*
G01*
X2621000Y-1927000D02*
G75*
G03*
X2541000Y-1927000I-40000J0D01*
G01*
X2541000Y-1927000D02*
G75*
G03*
X2621000Y-1927000I40000J0D01*
G01*
X2621000Y-2181000D02*
G75*
G03*
X2541000Y-2181000I-40000J0D01*
G01*
X2541000Y-2181000D02*
G75*
G03*
X2621000Y-2181000I40000J0D01*
G01*
X2640000Y-5500000D02*
G75*
G03*
X2560000Y-5500000I-40000J0D01*
G01*
X2560000Y-5500000D02*
G75*
G03*
X2640000Y-5500000I40000J0D01*
G01*
X3040000Y-1700000D02*
G75*
G03*
X2960000Y-1700000I-40000J0D01*
G01*
X2960000Y-1700000D02*
G75*
G03*
X3040000Y-1700000I40000J0D01*
G01*
X3040000Y-3800000D02*
G75*
G03*
X2960000Y-3800000I-40000J0D01*
G01*
X2960000Y-3800000D02*
G75*
G03*
X3040000Y-3800000I40000J0D01*
G01*
X3040000Y-4600000D02*
G75*
G03*
X2960000Y-4600000I-40000J0D01*
G01*
X2960000Y-4600000D02*
G75*
G03*
X3040000Y-4600000I40000J0D01*
G01*
X3140000Y-2400000D02*
G75*
G03*
X3060000Y-2400000I-40000J0D01*
G01*
X3060000Y-2400000D02*
G75*
G03*
X3140000Y-2400000I40000J0D01*
G01*
X3202000Y-600000D02*
G75*
G03*
X3122000Y-600000I-40000J0D01*
G01*
X3122000Y-600000D02*
G75*
G03*
X3202000Y-600000I40000J0D01*
G01*
X3202000Y-6300000D02*
G75*
G03*
X3122000Y-6300000I-40000J0D01*
G01*
X3122000Y-6300000D02*
G75*
G03*
X3202000Y-6300000I40000J0D01*
G01*
X3240000Y-3800000D02*
G75*
G03*
X3160000Y-3800000I-40000J0D01*
G01*
X3160000Y-3800000D02*
G75*
G03*
X3240000Y-3800000I40000J0D01*
G01*
X3340000Y-2400000D02*
G75*
G03*
X3260000Y-2400000I-40000J0D01*
G01*
X3260000Y-2400000D02*
G75*
G03*
X3340000Y-2400000I40000J0D01*
G01*
X3402000Y-5500000D02*
G75*
G03*
X3322000Y-5500000I-40000J0D01*
G01*
X3322000Y-5500000D02*
G75*
G03*
X3402000Y-5500000I40000J0D01*
G01*
X3540000Y-4600000D02*
G75*
G03*
X3460000Y-4600000I-40000J0D01*
G01*
X3460000Y-4600000D02*
G75*
G03*
X3540000Y-4600000I40000J0D01*
G01*
X3640000Y-600000D02*
G75*
G03*
X3560000Y-600000I-40000J0D01*
G01*
X3560000Y-600000D02*
G75*
G03*
X3640000Y-600000I40000J0D01*
G01*
X3640000Y-5800000D02*
G75*
G03*
X3560000Y-5800000I-40000J0D01*
G01*
X3560000Y-5800000D02*
G75*
G03*
X3640000Y-5800000I40000J0D01*
G01*
X3802000Y-1700000D02*
G75*
G03*
X3722000Y-1700000I-40000J0D01*
G01*
X3722000Y-1700000D02*
G75*
G03*
X3802000Y-1700000I40000J0D01*
G01*
X4140000Y-600000D02*
G75*
G03*
X4060000Y-600000I-40000J0D01*
G01*
X4060000Y-600000D02*
G75*
G03*
X4140000Y-600000I40000J0D01*
G01*
X4140000Y-5800000D02*
G75*
G03*
X4060000Y-5800000I-40000J0D01*
G01*
X4060000Y-5800000D02*
G75*
G03*
X4140000Y-5800000I40000J0D01*
G01*
X4999000Y-2700000D02*
G75*
G03*
X4919000Y-2700000I-40000J0D01*
G01*
X4919000Y-2700000D02*
G75*
G03*
X4999000Y-2700000I40000J0D01*
G01*
X4999000Y-3250000D02*
G75*
G03*
X4919000Y-3250000I-40000J0D01*
G01*
X4919000Y-3250000D02*
G75*
G03*
X4999000Y-3250000I40000J0D01*
G01*
X5761000Y-2700000D02*
G75*
G03*
X5681000Y-2700000I-40000J0D01*
G01*
X5681000Y-2700000D02*
G75*
G03*
X5761000Y-2700000I40000J0D01*
G01*
X5761000Y-3250000D02*
G75*
G03*
X5681000Y-3250000I-40000J0D01*
G01*
X5681000Y-3250000D02*
G75*
G03*
X5761000Y-3250000I40000J0D01*
G01*
X8990000Y-4100000D02*
G75*
G03*
X8910000Y-4100000I-40000J0D01*
G01*
X8910000Y-4100000D02*
G75*
G03*
X8990000Y-4100000I40000J0D01*
G01*
X8990000Y-4600000D02*
G75*
G03*
X8910000Y-4600000I-40000J0D01*
G01*
X8910000Y-4600000D02*
G75*
G03*
X8990000Y-4600000I40000J0D01*
G01*
X9752000Y-4100000D02*
G75*
G03*
X9672000Y-4100000I-40000J0D01*
G01*
X9672000Y-4100000D02*
G75*
G03*
X9752000Y-4100000I40000J0D01*
G01*
X9752000Y-4600000D02*
G75*
G03*
X9672000Y-4600000I-40000J0D01*
G01*
X9672000Y-4600000D02*
G75*
G03*
X9752000Y-4600000I40000J0D01*
G01*
X1000000Y-550000D02*
X1000000Y-650000D01*
X950000Y-600000D02*
X1050000Y-600000D01*
X1000000Y-804000D02*
X1000000Y-904000D01*
X950000Y-854000D02*
X1050000Y-854000D01*
X1000000Y-7050000D02*
X1000000Y-7150000D01*
X950000Y-7100000D02*
X1050000Y-7100000D01*
X1254000Y-7050000D02*
X1254000Y-7150000D01*
X1204000Y-7100000D02*
X1304000Y-7100000D01*
X1800000Y-7050000D02*
X1800000Y-7150000D01*
X1750000Y-7100000D02*
X1850000Y-7100000D01*
X2054000Y-7050000D02*
X2054000Y-7150000D01*
X2004000Y-7100000D02*
X2104000Y-7100000D01*
X2600000Y-7050000D02*
X2600000Y-7150000D01*
X2550000Y-7100000D02*
X2650000Y-7100000D01*
X2854000Y-7050000D02*
X2854000Y-7150000D01*
X2804000Y-7100000D02*
X2904000Y-7100000D01*
X3400000Y-7050000D02*
X3400000Y-7150000D01*
X3350000Y-7100000D02*
X3450000Y-7100000D01*
X3654000Y-7050000D02*
X3654000Y-7150000D01*
X3604000Y-7100000D02*
X3704000Y-7100000D01*
X4200000Y-7050000D02*
X4200000Y-7150000D01*
X4150000Y-7100000D02*
X4250000Y-7100000D01*
X4400000Y-950000D02*
X4400000Y-1050000D01*
X4350000Y-1000000D02*
X4450000Y-1000000D01*
X4400000Y-1204000D02*
X4400000Y-1304000D01*
X4350000Y-1254000D02*
X4450000Y-1254000D01*
X4400000Y-1458000D02*
X4400000Y-1558000D01*
X4350000Y-1508000D02*
X4450000Y-1508000D01*
X4400000Y-1712000D02*
X4400000Y-1812000D01*
X4350000Y-1762000D02*
X4450000Y-1762000D01*
X4400000Y-1966000D02*
X4400000Y-2066000D01*
X4350000Y-2016000D02*
X4450000Y-2016000D01*
X4400000Y-2220000D02*
X4400000Y-2320000D01*
X4350000Y-2270000D02*
X4450000Y-2270000D01*
X4400000Y-2474000D02*
X4400000Y-2574000D01*
X4350000Y-2524000D02*
X4450000Y-2524000D01*
X4400000Y-2728000D02*
X4400000Y-2828000D01*
X4350000Y-2778000D02*
X4450000Y-2778000D01*
X4400000Y-2982000D02*
X4400000Y-3082000D01*
X4350000Y-3032000D02*
X4450000Y-3032000D01*
X4400000Y-3550000D02*
X4400000Y-3650000D01*
X4350000Y-3600000D02*
X4450000Y-3600000D01*
X4400000Y-3804000D02*
X4400000Y-3904000D01*
X4350000Y-3854000D02*
X4450000Y-3854000D01*
X4400000Y-4058000D02*
X4400000Y-4158000D01*
X4350000Y-4108000D02*
X4450000Y-4108000D01*
X4400000Y-4312000D02*
X4400000Y-4412000D01*
X4350000Y-4362000D02*
X4450000Y-4362000D01*
X4400000Y-4566000D02*
X4400000Y-4666000D01*
X4350000Y-4616000D02*
X4450000Y-4616000D01*
X4400000Y-4820000D02*
X4400000Y-4920000D01*
X4350000Y-4870000D02*
X4450000Y-4870000D01*
X4400000Y-5074000D02*
X4400000Y-5174000D01*
X4350000Y-5124000D02*
X4450000Y-5124000D01*
X4400000Y-5328000D02*
X4400000Y-5428000D01*
X4350000Y-5378000D02*
X4450000Y-5378000D01*
X4454000Y-7050000D02*
X4454000Y-7150000D01*
X4404000Y-7100000D02*
X4504000Y-7100000D01*
X4708000Y-7050000D02*
X4708000Y-7150000D01*
X4658000Y-7100000D02*
X4758000Y-7100000D01*
X5300000Y-7050000D02*
X5300000Y-7150000D01*
X5250000Y-7100000D02*
X5350000Y-7100000D01*
X5554000Y-7050000D02*
X5554000Y-7150000D01*
X5504000Y-7100000D02*
X5604000Y-7100000D01*
X6060000Y-750000D02*
X6060000Y-850000D01*
X6010000Y-800000D02*
X6110000Y-800000D01*
X6060000Y-1004000D02*
X6060000Y-1104000D01*
X6010000Y-1054000D02*
X6110000Y-1054000D01*
X6060000Y-1258000D02*
X6060000Y-1358000D01*
X6010000Y-1308000D02*
X6110000Y-1308000D01*
X6060000Y-1512000D02*
X6060000Y-1612000D01*
X6010000Y-1562000D02*
X6110000Y-1562000D01*
X6060000Y-1766000D02*
X6060000Y-1866000D01*
X6010000Y-1816000D02*
X6110000Y-1816000D01*
X6060000Y-2020000D02*
X6060000Y-2120000D01*
X6010000Y-2070000D02*
X6110000Y-2070000D01*
X6060000Y-2274000D02*
X6060000Y-2374000D01*
X6010000Y-2324000D02*
X6110000Y-2324000D01*
X6060000Y-2528000D02*
X6060000Y-2628000D01*
X6010000Y-2578000D02*
X6110000Y-2578000D01*
X6060000Y-2782000D02*
X6060000Y-2882000D01*
X6010000Y-2832000D02*
X6110000Y-2832000D01*
X6060000Y-3036000D02*
X6060000Y-3136000D01*
X6010000Y-3086000D02*
X6110000Y-3086000D01*
X6060000Y-3290000D02*
X6060000Y-3390000D01*
X6010000Y-3340000D02*
X6110000Y-3340000D01*
X6060000Y-3544000D02*
X6060000Y-3644000D01*
X6010000Y-3594000D02*
X6110000Y-3594000D01*
X6060000Y-3798000D02*
X6060000Y-3898000D01*
X6010000Y-3848000D02*
X6110000Y-3848000D01*
X6060000Y-4052000D02*
X6060000Y-4152000D01*
X6010000Y-4102000D02*
X6110000Y-4102000D01*
X6060000Y-4306000D02*
X6060000Y-4406000D01*
X6010000Y-4356000D02*
X6110000Y-4356000D01*
X6060000Y-4560000D02*
X6060000Y-4660000D01*
X6010000Y-4610000D02*
X6110000Y-4610000D01*
X6060000Y-4814000D02*
X6060000Y-4914000D01*
X6010000Y-4864000D02*
X6110000Y-4864000D01*
X6060000Y-5068000D02*
X6060000Y-5168000D01*
X6010000Y-5118000D02*
X6110000Y-5118000D01*
X6060000Y-5322000D02*
X6060000Y-5422000D01*
X6010000Y-5372000D02*
X6110000Y-5372000D01*
X8600000Y-750000D02*
X8600000Y-850000D01*
X8550000Y-800000D02*
X8650000Y-800000D01*
X8600000Y-1004000D02*
X8600000Y-1104000D01*
X8550000Y-1054000D02*
X8650000Y-1054000D01*
X8600000Y-1258000D02*
X8600000Y-1358000D01*
X8550000Y-1308000D02*
X8650000Y-1308000D01*
X8600000Y-1512000D02*
X8600000Y-1612000D01*
X8550000Y-1562000D02*
X8650000Y-1562000D01*
X8600000Y-1766000D02*
X8600000Y-1866000D01*
X8550000Y-1816000D02*
X8650000Y-1816000D01*
X8600000Y-2020000D02*
X8600000Y-2120000D01*
X8550000Y-2070000D02*
X8650000Y-2070000D01*
X8600000Y-2274000D02*
X8600000Y-2374000D01*
X8550000Y-2324000D02*
X8650000Y-2324000D01*
X8600000Y-2528000D02*
X8600000Y-2628000D01*
X8550000Y-2578000D02*
X8650000Y-2578000D01*
X8600000Y-2782000D02*
X8600000Y-2882000D01*
X8550000Y-2832000D02*
X8650000Y-2832000D01*
X8600000Y-3036000D02*
X8600000Y-3136000D01*
X8550000Y-3086000D02*
X8650000Y-3086000D01*
X8600000Y-3290000D02*
X8600000Y-3390000D01*
X8550000Y-3340000D02*
X8650000Y-3340000D01*
X8600000Y-3544000D02*
X8600000Y-3644000D01*
X8550000Y-3594000D02*
X8650000Y-3594000D01*
X8600000Y-3798000D02*
X8600000Y-3898000D01*
X8550000Y-3848000D02*
X8650000Y-3848000D01*
X8600000Y-4052000D02*
X8600000Y-4152000D01*
X8550000Y-4102000D02*
X8650000Y-4102000D01*
X8600000Y-4306000D02*
X8600000Y-4406000D01*
X8550000Y-4356000D02*
X8650000Y-4356000D01*
X8600000Y-4560000D02*
X8600000Y-4660000D01*
X8550000Y-4610000D02*
X8650000Y-4610000D01*
X8600000Y-4814000D02*
X8600000Y-4914000D01*
X8550000Y-4864000D02*
X8650000Y-4864000D01*
X8600000Y-5068000D02*
X8600000Y-5168000D01*
X8550000Y-5118000D02*
X8650000Y-5118000D01*
X8600000Y-5322000D02*
X8600000Y-5422000D01*
X8550000Y-5372000D02*
X8650000Y-5372000D01*
D12*
X513138Y-513138D02*
X513138Y-286862D01*
X286862Y-286862D01*
X286862Y-513138D01*
X513138Y-513138D01*
X513138Y-7313138D02*
X513138Y-7086862D01*
X286862Y-7086862D01*
X286862Y-7313138D01*
X513138Y-7313138D01*
X9713138Y-513138D02*
X9713138Y-286862D01*
X9486862Y-286862D01*
X9486862Y-513138D01*
X9713138Y-513138D01*
X9713138Y-7313138D02*
X9713138Y-7086862D01*
X9486862Y-7086862D01*
X9486862Y-7313138D01*
X9713138Y-7313138D01*
D11*
X255777Y-7916484D02*
X255777Y-7716484D01*
X255777Y-7716484D02*
X303396Y-7716484D01*
X303396Y-7716484D02*
X331967Y-7726008D01*
X331967Y-7726008D02*
X351015Y-7745055D01*
X351015Y-7745055D02*
X360539Y-7764103D01*
X360539Y-7764103D02*
X370062Y-7802198D01*
X370062Y-7802198D02*
X370062Y-7830769D01*
X370062Y-7830769D02*
X360539Y-7868865D01*
X360539Y-7868865D02*
X351015Y-7887912D01*
X351015Y-7887912D02*
X331967Y-7906960D01*
X331967Y-7906960D02*
X303396Y-7916484D01*
X303396Y-7916484D02*
X255777Y-7916484D01*
X455777Y-7916484D02*
X455777Y-7783150D01*
X455777Y-7821246D02*
X465301Y-7802198D01*
X465301Y-7802198D02*
X474824Y-7792674D01*
X474824Y-7792674D02*
X493872Y-7783150D01*
X493872Y-7783150D02*
X512920Y-7783150D01*
X579586Y-7916484D02*
X579586Y-7783150D01*
X579586Y-7716484D02*
X570063Y-7726008D01*
X570063Y-7726008D02*
X579586Y-7735531D01*
X579586Y-7735531D02*
X589110Y-7726008D01*
X589110Y-7726008D02*
X579586Y-7716484D01*
X579586Y-7716484D02*
X579586Y-7735531D01*
X703396Y-7916484D02*
X684348Y-7906960D01*
X684348Y-7906960D02*
X674824Y-7887912D01*
X674824Y-7887912D02*
X674824Y-7716484D01*
X808158Y-7916484D02*
X789110Y-7906960D01*
X789110Y-7906960D02*
X779586Y-7887912D01*
X779586Y-7887912D02*
X779586Y-7716484D01*
X1036729Y-7916484D02*
X1036729Y-7716484D01*
X1036729Y-7716484D02*
X1103396Y-7859341D01*
X1103396Y-7859341D02*
X1170063Y-7716484D01*
X1170063Y-7716484D02*
X1170063Y-7916484D01*
X1351015Y-7916484D02*
X1351015Y-7811722D01*
X1351015Y-7811722D02*
X1341491Y-7792674D01*
X1341491Y-7792674D02*
X1322444Y-7783150D01*
X1322444Y-7783150D02*
X1284348Y-7783150D01*
X1284348Y-7783150D02*
X1265301Y-7792674D01*
X1351015Y-7906960D02*
X1331967Y-7916484D01*
X1331967Y-7916484D02*
X1284348Y-7916484D01*
X1284348Y-7916484D02*
X1265301Y-7906960D01*
X1265301Y-7906960D02*
X1255777Y-7887912D01*
X1255777Y-7887912D02*
X1255777Y-7868865D01*
X1255777Y-7868865D02*
X1265301Y-7849817D01*
X1265301Y-7849817D02*
X1284348Y-7840293D01*
X1284348Y-7840293D02*
X1331967Y-7840293D01*
X1331967Y-7840293D02*
X1351015Y-7830769D01*
X1446253Y-7783150D02*
X1446253Y-7983150D01*
X1446253Y-7792674D02*
X1465301Y-7783150D01*
X1465301Y-7783150D02*
X1503396Y-7783150D01*
X1503396Y-7783150D02*
X1522443Y-7792674D01*
X1522443Y-7792674D02*
X1531967Y-7802198D01*
X1531967Y-7802198D02*
X1541491Y-7821246D01*
X1541491Y-7821246D02*
X1541491Y-7878388D01*
X1541491Y-7878388D02*
X1531967Y-7897436D01*
X1531967Y-7897436D02*
X1522443Y-7906960D01*
X1522443Y-7906960D02*
X1503396Y-7916484D01*
X1503396Y-7916484D02*
X1465301Y-7916484D01*
X1465301Y-7916484D02*
X1446253Y-7906960D01*
X1627205Y-7897436D02*
X1636729Y-7906960D01*
X1636729Y-7906960D02*
X1627205Y-7916484D01*
X1627205Y-7916484D02*
X1617682Y-7906960D01*
X1617682Y-7906960D02*
X1627205Y-7897436D01*
X1627205Y-7897436D02*
X1627205Y-7916484D01*
X1627205Y-7792674D02*
X1636729Y-7802198D01*
X1636729Y-7802198D02*
X1627205Y-7811722D01*
X1627205Y-7811722D02*
X1617682Y-7802198D01*
X1617682Y-7802198D02*
X1627205Y-7792674D01*
X1627205Y-7792674D02*
X1627205Y-7811722D01*
D10*
X-45000Y-8225000D02*
X-5000Y-8265000D01*
X-5000Y-8225000D02*
X-45000Y-8265000D01*
D11*
X293872Y-8136484D02*
X312920Y-8136484D01*
X312920Y-8136484D02*
X331967Y-8146008D01*
X331967Y-8146008D02*
X341491Y-8155531D01*
X341491Y-8155531D02*
X351015Y-8174579D01*
X351015Y-8174579D02*
X360539Y-8212674D01*
X360539Y-8212674D02*
X360539Y-8260293D01*
X360539Y-8260293D02*
X351015Y-8298388D01*
X351015Y-8298388D02*
X341491Y-8317436D01*
X341491Y-8317436D02*
X331967Y-8326960D01*
X331967Y-8326960D02*
X312920Y-8336484D01*
X312920Y-8336484D02*
X293872Y-8336484D01*
X293872Y-8336484D02*
X274824Y-8326960D01*
X274824Y-8326960D02*
X265301Y-8317436D01*
X265301Y-8317436D02*
X255777Y-8298388D01*
X255777Y-8298388D02*
X246253Y-8260293D01*
X246253Y-8260293D02*
X246253Y-8212674D01*
X246253Y-8212674D02*
X255777Y-8174579D01*
X255777Y-8174579D02*
X265301Y-8155531D01*
X265301Y-8155531D02*
X274824Y-8146008D01*
X274824Y-8146008D02*
X293872Y-8136484D01*
X446253Y-8317436D02*
X455777Y-8326960D01*
X455777Y-8326960D02*
X446253Y-8336484D01*
X446253Y-8336484D02*
X436729Y-8326960D01*
X436729Y-8326960D02*
X446253Y-8317436D01*
X446253Y-8317436D02*
X446253Y-8336484D01*
X627205Y-8203150D02*
X627205Y-8336484D01*
X579586Y-8126960D02*
X531967Y-8269817D01*
X531967Y-8269817D02*
X655777Y-8269817D01*
X770062Y-8136484D02*
X789110Y-8136484D01*
X789110Y-8136484D02*
X808158Y-8146008D01*
X808158Y-8146008D02*
X817682Y-8155531D01*
X817682Y-8155531D02*
X827205Y-8174579D01*
X827205Y-8174579D02*
X836729Y-8212674D01*
X836729Y-8212674D02*
X836729Y-8260293D01*
X836729Y-8260293D02*
X827205Y-8298388D01*
X827205Y-8298388D02*
X817682Y-8317436D01*
X817682Y-8317436D02*
X808158Y-8326960D01*
X808158Y-8326960D02*
X789110Y-8336484D01*
X789110Y-8336484D02*
X770062Y-8336484D01*
X770062Y-8336484D02*
X751015Y-8326960D01*
X751015Y-8326960D02*
X741491Y-8317436D01*
X741491Y-8317436D02*
X731967Y-8298388D01*
X731967Y-8298388D02*
X722443Y-8260293D01*
X722443Y-8260293D02*
X722443Y-8212674D01*
X722443Y-8212674D02*
X731967Y-8174579D01*
X731967Y-8174579D02*
X741491Y-8155531D01*
X741491Y-8155531D02*
X751015Y-8146008D01*
X751015Y-8146008D02*
X770062Y-8136484D01*
X960539Y-8136484D02*
X979586Y-8136484D01*
X979586Y-8136484D02*
X998634Y-8146008D01*
X998634Y-8146008D02*
X1008158Y-8155531D01*
X1008158Y-8155531D02*
X1017682Y-8174579D01*
X1017682Y-8174579D02*
X1027205Y-8212674D01*
X1027205Y-8212674D02*
X1027205Y-8260293D01*
X1027205Y-8260293D02*
X1017682Y-8298388D01*
X1017682Y-8298388D02*
X1008158Y-8317436D01*
X1008158Y-8317436D02*
X998634Y-8326960D01*
X998634Y-8326960D02*
X979586Y-8336484D01*
X979586Y-8336484D02*
X960539Y-8336484D01*
X960539Y-8336484D02*
X941491Y-8326960D01*
X941491Y-8326960D02*
X931967Y-8317436D01*
X931967Y-8317436D02*
X922443Y-8298388D01*
X922443Y-8298388D02*
X912920Y-8260293D01*
X912920Y-8260293D02*
X912920Y-8212674D01*
X912920Y-8212674D02*
X922443Y-8174579D01*
X922443Y-8174579D02*
X931967Y-8155531D01*
X931967Y-8155531D02*
X941491Y-8146008D01*
X941491Y-8146008D02*
X960539Y-8136484D01*
X1112920Y-8336484D02*
X1112920Y-8203150D01*
X1112920Y-8222198D02*
X1122444Y-8212674D01*
X1122444Y-8212674D02*
X1141491Y-8203150D01*
X1141491Y-8203150D02*
X1170063Y-8203150D01*
X1170063Y-8203150D02*
X1189110Y-8212674D01*
X1189110Y-8212674D02*
X1198634Y-8231722D01*
X1198634Y-8231722D02*
X1198634Y-8336484D01*
X1198634Y-8231722D02*
X1208158Y-8212674D01*
X1208158Y-8212674D02*
X1227205Y-8203150D01*
X1227205Y-8203150D02*
X1255777Y-8203150D01*
X1255777Y-8203150D02*
X1274825Y-8212674D01*
X1274825Y-8212674D02*
X1284348Y-8231722D01*
X1284348Y-8231722D02*
X1284348Y-8336484D01*
X1379586Y-8336484D02*
X1379586Y-8203150D01*
X1379586Y-8222198D02*
X1389110Y-8212674D01*
X1389110Y-8212674D02*
X1408158Y-8203150D01*
X1408158Y-8203150D02*
X1436729Y-8203150D01*
X1436729Y-8203150D02*
X1455777Y-8212674D01*
X1455777Y-8212674D02*
X1465301Y-8231722D01*
X1465301Y-8231722D02*
X1465301Y-8336484D01*
X1465301Y-8231722D02*
X1474824Y-8212674D01*
X1474824Y-8212674D02*
X1493872Y-8203150D01*
X1493872Y-8203150D02*
X1522443Y-8203150D01*
X1522443Y-8203150D02*
X1541491Y-8212674D01*
X1541491Y-8212674D02*
X1551015Y-8231722D01*
X1551015Y-8231722D02*
X1551015Y-8336484D01*
X1941491Y-8126960D02*
X1770063Y-8384103D01*
X2198634Y-8136484D02*
X2217682Y-8136484D01*
X2217682Y-8136484D02*
X2236729Y-8146008D01*
X2236729Y-8146008D02*
X2246253Y-8155531D01*
X2246253Y-8155531D02*
X2255777Y-8174579D01*
X2255777Y-8174579D02*
X2265301Y-8212674D01*
X2265301Y-8212674D02*
X2265301Y-8260293D01*
X2265301Y-8260293D02*
X2255777Y-8298388D01*
X2255777Y-8298388D02*
X2246253Y-8317436D01*
X2246253Y-8317436D02*
X2236729Y-8326960D01*
X2236729Y-8326960D02*
X2217682Y-8336484D01*
X2217682Y-8336484D02*
X2198634Y-8336484D01*
X2198634Y-8336484D02*
X2179587Y-8326960D01*
X2179587Y-8326960D02*
X2170063Y-8317436D01*
X2170063Y-8317436D02*
X2160539Y-8298388D01*
X2160539Y-8298388D02*
X2151015Y-8260293D01*
X2151015Y-8260293D02*
X2151015Y-8212674D01*
X2151015Y-8212674D02*
X2160539Y-8174579D01*
X2160539Y-8174579D02*
X2170063Y-8155531D01*
X2170063Y-8155531D02*
X2179587Y-8146008D01*
X2179587Y-8146008D02*
X2198634Y-8136484D01*
X2351015Y-8317436D02*
X2360539Y-8326960D01*
X2360539Y-8326960D02*
X2351015Y-8336484D01*
X2351015Y-8336484D02*
X2341491Y-8326960D01*
X2341491Y-8326960D02*
X2351015Y-8317436D01*
X2351015Y-8317436D02*
X2351015Y-8336484D01*
X2484348Y-8136484D02*
X2503396Y-8136484D01*
X2503396Y-8136484D02*
X2522444Y-8146008D01*
X2522444Y-8146008D02*
X2531968Y-8155531D01*
X2531968Y-8155531D02*
X2541491Y-8174579D01*
X2541491Y-8174579D02*
X2551015Y-8212674D01*
X2551015Y-8212674D02*
X2551015Y-8260293D01*
X2551015Y-8260293D02*
X2541491Y-8298388D01*
X2541491Y-8298388D02*
X2531968Y-8317436D01*
X2531968Y-8317436D02*
X2522444Y-8326960D01*
X2522444Y-8326960D02*
X2503396Y-8336484D01*
X2503396Y-8336484D02*
X2484348Y-8336484D01*
X2484348Y-8336484D02*
X2465301Y-8326960D01*
X2465301Y-8326960D02*
X2455777Y-8317436D01*
X2455777Y-8317436D02*
X2446253Y-8298388D01*
X2446253Y-8298388D02*
X2436729Y-8260293D01*
X2436729Y-8260293D02*
X2436729Y-8212674D01*
X2436729Y-8212674D02*
X2446253Y-8174579D01*
X2446253Y-8174579D02*
X2455777Y-8155531D01*
X2455777Y-8155531D02*
X2465301Y-8146008D01*
X2465301Y-8146008D02*
X2484348Y-8136484D01*
X2741491Y-8336484D02*
X2627206Y-8336484D01*
X2684348Y-8336484D02*
X2684348Y-8136484D01*
X2684348Y-8136484D02*
X2665301Y-8165055D01*
X2665301Y-8165055D02*
X2646253Y-8184103D01*
X2646253Y-8184103D02*
X2627206Y-8193627D01*
X2922444Y-8136484D02*
X2827206Y-8136484D01*
X2827206Y-8136484D02*
X2817682Y-8231722D01*
X2817682Y-8231722D02*
X2827206Y-8222198D01*
X2827206Y-8222198D02*
X2846253Y-8212674D01*
X2846253Y-8212674D02*
X2893872Y-8212674D01*
X2893872Y-8212674D02*
X2912920Y-8222198D01*
X2912920Y-8222198D02*
X2922444Y-8231722D01*
X2922444Y-8231722D02*
X2931967Y-8250769D01*
X2931967Y-8250769D02*
X2931967Y-8298388D01*
X2931967Y-8298388D02*
X2922444Y-8317436D01*
X2922444Y-8317436D02*
X2912920Y-8326960D01*
X2912920Y-8326960D02*
X2893872Y-8336484D01*
X2893872Y-8336484D02*
X2846253Y-8336484D01*
X2846253Y-8336484D02*
X2827206Y-8326960D01*
X2827206Y-8326960D02*
X2817682Y-8317436D01*
X2998634Y-8136484D02*
X3131967Y-8136484D01*
X3131967Y-8136484D02*
X3046253Y-8336484D01*
X3198634Y-8136484D02*
X3198634Y-8174579D01*
X3274825Y-8136484D02*
X3274825Y-8174579D01*
X3570063Y-8412674D02*
X3560539Y-8403150D01*
X3560539Y-8403150D02*
X3541491Y-8374579D01*
X3541491Y-8374579D02*
X3531968Y-8355531D01*
X3531968Y-8355531D02*
X3522444Y-8326960D01*
X3522444Y-8326960D02*
X3512920Y-8279341D01*
X3512920Y-8279341D02*
X3512920Y-8241246D01*
X3512920Y-8241246D02*
X3522444Y-8193627D01*
X3522444Y-8193627D02*
X3531968Y-8165055D01*
X3531968Y-8165055D02*
X3541491Y-8146008D01*
X3541491Y-8146008D02*
X3560539Y-8117436D01*
X3560539Y-8117436D02*
X3570063Y-8107912D01*
X3751015Y-8336484D02*
X3636729Y-8336484D01*
X3693872Y-8336484D02*
X3693872Y-8136484D01*
X3693872Y-8136484D02*
X3674825Y-8165055D01*
X3674825Y-8165055D02*
X3655777Y-8184103D01*
X3655777Y-8184103D02*
X3636729Y-8193627D01*
X3846253Y-8336484D02*
X3884348Y-8336484D01*
X3884348Y-8336484D02*
X3903396Y-8326960D01*
X3903396Y-8326960D02*
X3912920Y-8317436D01*
X3912920Y-8317436D02*
X3931968Y-8288865D01*
X3931968Y-8288865D02*
X3941491Y-8250769D01*
X3941491Y-8250769D02*
X3941491Y-8174579D01*
X3941491Y-8174579D02*
X3931968Y-8155531D01*
X3931968Y-8155531D02*
X3922444Y-8146008D01*
X3922444Y-8146008D02*
X3903396Y-8136484D01*
X3903396Y-8136484D02*
X3865301Y-8136484D01*
X3865301Y-8136484D02*
X3846253Y-8146008D01*
X3846253Y-8146008D02*
X3836729Y-8155531D01*
X3836729Y-8155531D02*
X3827206Y-8174579D01*
X3827206Y-8174579D02*
X3827206Y-8222198D01*
X3827206Y-8222198D02*
X3836729Y-8241246D01*
X3836729Y-8241246D02*
X3846253Y-8250769D01*
X3846253Y-8250769D02*
X3865301Y-8260293D01*
X3865301Y-8260293D02*
X3903396Y-8260293D01*
X3903396Y-8260293D02*
X3922444Y-8250769D01*
X3922444Y-8250769D02*
X3931968Y-8241246D01*
X3931968Y-8241246D02*
X3941491Y-8222198D01*
X4179587Y-8336484D02*
X4179587Y-8136484D01*
X4265301Y-8336484D02*
X4265301Y-8231722D01*
X4265301Y-8231722D02*
X4255777Y-8212674D01*
X4255777Y-8212674D02*
X4236730Y-8203150D01*
X4236730Y-8203150D02*
X4208158Y-8203150D01*
X4208158Y-8203150D02*
X4189110Y-8212674D01*
X4189110Y-8212674D02*
X4179587Y-8222198D01*
X4389111Y-8336484D02*
X4370063Y-8326960D01*
X4370063Y-8326960D02*
X4360539Y-8317436D01*
X4360539Y-8317436D02*
X4351015Y-8298388D01*
X4351015Y-8298388D02*
X4351015Y-8241246D01*
X4351015Y-8241246D02*
X4360539Y-8222198D01*
X4360539Y-8222198D02*
X4370063Y-8212674D01*
X4370063Y-8212674D02*
X4389111Y-8203150D01*
X4389111Y-8203150D02*
X4417682Y-8203150D01*
X4417682Y-8203150D02*
X4436730Y-8212674D01*
X4436730Y-8212674D02*
X4446253Y-8222198D01*
X4446253Y-8222198D02*
X4455777Y-8241246D01*
X4455777Y-8241246D02*
X4455777Y-8298388D01*
X4455777Y-8298388D02*
X4446253Y-8317436D01*
X4446253Y-8317436D02*
X4436730Y-8326960D01*
X4436730Y-8326960D02*
X4417682Y-8336484D01*
X4417682Y-8336484D02*
X4389111Y-8336484D01*
X4570063Y-8336484D02*
X4551015Y-8326960D01*
X4551015Y-8326960D02*
X4541492Y-8307912D01*
X4541492Y-8307912D02*
X4541492Y-8136484D01*
X4722444Y-8326960D02*
X4703396Y-8336484D01*
X4703396Y-8336484D02*
X4665301Y-8336484D01*
X4665301Y-8336484D02*
X4646253Y-8326960D01*
X4646253Y-8326960D02*
X4636730Y-8307912D01*
X4636730Y-8307912D02*
X4636730Y-8231722D01*
X4636730Y-8231722D02*
X4646253Y-8212674D01*
X4646253Y-8212674D02*
X4665301Y-8203150D01*
X4665301Y-8203150D02*
X4703396Y-8203150D01*
X4703396Y-8203150D02*
X4722444Y-8212674D01*
X4722444Y-8212674D02*
X4731968Y-8231722D01*
X4731968Y-8231722D02*
X4731968Y-8250769D01*
X4731968Y-8250769D02*
X4636730Y-8269817D01*
X4808158Y-8326960D02*
X4827206Y-8336484D01*
X4827206Y-8336484D02*
X4865301Y-8336484D01*
X4865301Y-8336484D02*
X4884349Y-8326960D01*
X4884349Y-8326960D02*
X4893873Y-8307912D01*
X4893873Y-8307912D02*
X4893873Y-8298388D01*
X4893873Y-8298388D02*
X4884349Y-8279341D01*
X4884349Y-8279341D02*
X4865301Y-8269817D01*
X4865301Y-8269817D02*
X4836730Y-8269817D01*
X4836730Y-8269817D02*
X4817682Y-8260293D01*
X4817682Y-8260293D02*
X4808158Y-8241246D01*
X4808158Y-8241246D02*
X4808158Y-8231722D01*
X4808158Y-8231722D02*
X4817682Y-8212674D01*
X4817682Y-8212674D02*
X4836730Y-8203150D01*
X4836730Y-8203150D02*
X4865301Y-8203150D01*
X4865301Y-8203150D02*
X4884349Y-8212674D01*
X4960539Y-8412674D02*
X4970063Y-8403150D01*
X4970063Y-8403150D02*
X4989111Y-8374579D01*
X4989111Y-8374579D02*
X4998634Y-8355531D01*
X4998634Y-8355531D02*
X5008158Y-8326960D01*
X5008158Y-8326960D02*
X5017682Y-8279341D01*
X5017682Y-8279341D02*
X5017682Y-8241246D01*
X5017682Y-8241246D02*
X5008158Y-8193627D01*
X5008158Y-8193627D02*
X4998634Y-8165055D01*
X4998634Y-8165055D02*
X4989111Y-8146008D01*
X4989111Y-8146008D02*
X4970063Y-8117436D01*
X4970063Y-8117436D02*
X4960539Y-8107912D01*
D10*
X-5000Y-8509000D02*
G75*
G03*
X-85000Y-8509000I-40000J0D01*
G01*
X-85000Y-8509000D02*
G75*
G03*
X-5000Y-8509000I40000J0D01*
G01*
D11*
X293872Y-8400484D02*
X312920Y-8400484D01*
X312920Y-8400484D02*
X331967Y-8410008D01*
X331967Y-8410008D02*
X341491Y-8419531D01*
X341491Y-8419531D02*
X351015Y-8438579D01*
X351015Y-8438579D02*
X360539Y-8476674D01*
X360539Y-8476674D02*
X360539Y-8524293D01*
X360539Y-8524293D02*
X351015Y-8562389D01*
X351015Y-8562389D02*
X341491Y-8581436D01*
X341491Y-8581436D02*
X331967Y-8590960D01*
X331967Y-8590960D02*
X312920Y-8600484D01*
X312920Y-8600484D02*
X293872Y-8600484D01*
X293872Y-8600484D02*
X274824Y-8590960D01*
X274824Y-8590960D02*
X265301Y-8581436D01*
X265301Y-8581436D02*
X255777Y-8562389D01*
X255777Y-8562389D02*
X246253Y-8524293D01*
X246253Y-8524293D02*
X246253Y-8476674D01*
X246253Y-8476674D02*
X255777Y-8438579D01*
X255777Y-8438579D02*
X265301Y-8419531D01*
X265301Y-8419531D02*
X274824Y-8410008D01*
X274824Y-8410008D02*
X293872Y-8400484D01*
X446253Y-8581436D02*
X455777Y-8590960D01*
X455777Y-8590960D02*
X446253Y-8600484D01*
X446253Y-8600484D02*
X436729Y-8590960D01*
X436729Y-8590960D02*
X446253Y-8581436D01*
X446253Y-8581436D02*
X446253Y-8600484D01*
X570063Y-8486198D02*
X551015Y-8476674D01*
X551015Y-8476674D02*
X541491Y-8467150D01*
X541491Y-8467150D02*
X531967Y-8448103D01*
X531967Y-8448103D02*
X531967Y-8438579D01*
X531967Y-8438579D02*
X541491Y-8419531D01*
X541491Y-8419531D02*
X551015Y-8410008D01*
X551015Y-8410008D02*
X570063Y-8400484D01*
X570063Y-8400484D02*
X608158Y-8400484D01*
X608158Y-8400484D02*
X627205Y-8410008D01*
X627205Y-8410008D02*
X636729Y-8419531D01*
X636729Y-8419531D02*
X646253Y-8438579D01*
X646253Y-8438579D02*
X646253Y-8448103D01*
X646253Y-8448103D02*
X636729Y-8467150D01*
X636729Y-8467150D02*
X627205Y-8476674D01*
X627205Y-8476674D02*
X608158Y-8486198D01*
X608158Y-8486198D02*
X570063Y-8486198D01*
X570063Y-8486198D02*
X551015Y-8495722D01*
X551015Y-8495722D02*
X541491Y-8505246D01*
X541491Y-8505246D02*
X531967Y-8524293D01*
X531967Y-8524293D02*
X531967Y-8562389D01*
X531967Y-8562389D02*
X541491Y-8581436D01*
X541491Y-8581436D02*
X551015Y-8590960D01*
X551015Y-8590960D02*
X570063Y-8600484D01*
X570063Y-8600484D02*
X608158Y-8600484D01*
X608158Y-8600484D02*
X627205Y-8590960D01*
X627205Y-8590960D02*
X636729Y-8581436D01*
X636729Y-8581436D02*
X646253Y-8562389D01*
X646253Y-8562389D02*
X646253Y-8524293D01*
X646253Y-8524293D02*
X636729Y-8505246D01*
X636729Y-8505246D02*
X627205Y-8495722D01*
X627205Y-8495722D02*
X608158Y-8486198D01*
X770062Y-8400484D02*
X789110Y-8400484D01*
X789110Y-8400484D02*
X808158Y-8410008D01*
X808158Y-8410008D02*
X817682Y-8419531D01*
X817682Y-8419531D02*
X827205Y-8438579D01*
X827205Y-8438579D02*
X836729Y-8476674D01*
X836729Y-8476674D02*
X836729Y-8524293D01*
X836729Y-8524293D02*
X827205Y-8562389D01*
X827205Y-8562389D02*
X817682Y-8581436D01*
X817682Y-8581436D02*
X808158Y-8590960D01*
X808158Y-8590960D02*
X789110Y-8600484D01*
X789110Y-8600484D02*
X770062Y-8600484D01*
X770062Y-8600484D02*
X751015Y-8590960D01*
X751015Y-8590960D02*
X741491Y-8581436D01*
X741491Y-8581436D02*
X731967Y-8562389D01*
X731967Y-8562389D02*
X722443Y-8524293D01*
X722443Y-8524293D02*
X722443Y-8476674D01*
X722443Y-8476674D02*
X731967Y-8438579D01*
X731967Y-8438579D02*
X741491Y-8419531D01*
X741491Y-8419531D02*
X751015Y-8410008D01*
X751015Y-8410008D02*
X770062Y-8400484D01*
X960539Y-8400484D02*
X979586Y-8400484D01*
X979586Y-8400484D02*
X998634Y-8410008D01*
X998634Y-8410008D02*
X1008158Y-8419531D01*
X1008158Y-8419531D02*
X1017682Y-8438579D01*
X1017682Y-8438579D02*
X1027205Y-8476674D01*
X1027205Y-8476674D02*
X1027205Y-8524293D01*
X1027205Y-8524293D02*
X1017682Y-8562389D01*
X1017682Y-8562389D02*
X1008158Y-8581436D01*
X1008158Y-8581436D02*
X998634Y-8590960D01*
X998634Y-8590960D02*
X979586Y-8600484D01*
X979586Y-8600484D02*
X960539Y-8600484D01*
X960539Y-8600484D02*
X941491Y-8590960D01*
X941491Y-8590960D02*
X931967Y-8581436D01*
X931967Y-8581436D02*
X922443Y-8562389D01*
X922443Y-8562389D02*
X912920Y-8524293D01*
X912920Y-8524293D02*
X912920Y-8476674D01*
X912920Y-8476674D02*
X922443Y-8438579D01*
X922443Y-8438579D02*
X931967Y-8419531D01*
X931967Y-8419531D02*
X941491Y-8410008D01*
X941491Y-8410008D02*
X960539Y-8400484D01*
X1112920Y-8600484D02*
X1112920Y-8467150D01*
X1112920Y-8486198D02*
X1122444Y-8476674D01*
X1122444Y-8476674D02*
X1141491Y-8467150D01*
X1141491Y-8467150D02*
X1170063Y-8467150D01*
X1170063Y-8467150D02*
X1189110Y-8476674D01*
X1189110Y-8476674D02*
X1198634Y-8495722D01*
X1198634Y-8495722D02*
X1198634Y-8600484D01*
X1198634Y-8495722D02*
X1208158Y-8476674D01*
X1208158Y-8476674D02*
X1227205Y-8467150D01*
X1227205Y-8467150D02*
X1255777Y-8467150D01*
X1255777Y-8467150D02*
X1274825Y-8476674D01*
X1274825Y-8476674D02*
X1284348Y-8495722D01*
X1284348Y-8495722D02*
X1284348Y-8600484D01*
X1379586Y-8600484D02*
X1379586Y-8467150D01*
X1379586Y-8486198D02*
X1389110Y-8476674D01*
X1389110Y-8476674D02*
X1408158Y-8467150D01*
X1408158Y-8467150D02*
X1436729Y-8467150D01*
X1436729Y-8467150D02*
X1455777Y-8476674D01*
X1455777Y-8476674D02*
X1465301Y-8495722D01*
X1465301Y-8495722D02*
X1465301Y-8600484D01*
X1465301Y-8495722D02*
X1474824Y-8476674D01*
X1474824Y-8476674D02*
X1493872Y-8467150D01*
X1493872Y-8467150D02*
X1522443Y-8467150D01*
X1522443Y-8467150D02*
X1541491Y-8476674D01*
X1541491Y-8476674D02*
X1551015Y-8495722D01*
X1551015Y-8495722D02*
X1551015Y-8600484D01*
X1941491Y-8390960D02*
X1770063Y-8648103D01*
X2198634Y-8400484D02*
X2217682Y-8400484D01*
X2217682Y-8400484D02*
X2236729Y-8410008D01*
X2236729Y-8410008D02*
X2246253Y-8419531D01*
X2246253Y-8419531D02*
X2255777Y-8438579D01*
X2255777Y-8438579D02*
X2265301Y-8476674D01*
X2265301Y-8476674D02*
X2265301Y-8524293D01*
X2265301Y-8524293D02*
X2255777Y-8562389D01*
X2255777Y-8562389D02*
X2246253Y-8581436D01*
X2246253Y-8581436D02*
X2236729Y-8590960D01*
X2236729Y-8590960D02*
X2217682Y-8600484D01*
X2217682Y-8600484D02*
X2198634Y-8600484D01*
X2198634Y-8600484D02*
X2179587Y-8590960D01*
X2179587Y-8590960D02*
X2170063Y-8581436D01*
X2170063Y-8581436D02*
X2160539Y-8562389D01*
X2160539Y-8562389D02*
X2151015Y-8524293D01*
X2151015Y-8524293D02*
X2151015Y-8476674D01*
X2151015Y-8476674D02*
X2160539Y-8438579D01*
X2160539Y-8438579D02*
X2170063Y-8419531D01*
X2170063Y-8419531D02*
X2179587Y-8410008D01*
X2179587Y-8410008D02*
X2198634Y-8400484D01*
X2351015Y-8581436D02*
X2360539Y-8590960D01*
X2360539Y-8590960D02*
X2351015Y-8600484D01*
X2351015Y-8600484D02*
X2341491Y-8590960D01*
X2341491Y-8590960D02*
X2351015Y-8581436D01*
X2351015Y-8581436D02*
X2351015Y-8600484D01*
X2484348Y-8400484D02*
X2503396Y-8400484D01*
X2503396Y-8400484D02*
X2522444Y-8410008D01*
X2522444Y-8410008D02*
X2531968Y-8419531D01*
X2531968Y-8419531D02*
X2541491Y-8438579D01*
X2541491Y-8438579D02*
X2551015Y-8476674D01*
X2551015Y-8476674D02*
X2551015Y-8524293D01*
X2551015Y-8524293D02*
X2541491Y-8562389D01*
X2541491Y-8562389D02*
X2531968Y-8581436D01*
X2531968Y-8581436D02*
X2522444Y-8590960D01*
X2522444Y-8590960D02*
X2503396Y-8600484D01*
X2503396Y-8600484D02*
X2484348Y-8600484D01*
X2484348Y-8600484D02*
X2465301Y-8590960D01*
X2465301Y-8590960D02*
X2455777Y-8581436D01*
X2455777Y-8581436D02*
X2446253Y-8562389D01*
X2446253Y-8562389D02*
X2436729Y-8524293D01*
X2436729Y-8524293D02*
X2436729Y-8476674D01*
X2436729Y-8476674D02*
X2446253Y-8438579D01*
X2446253Y-8438579D02*
X2455777Y-8419531D01*
X2455777Y-8419531D02*
X2465301Y-8410008D01*
X2465301Y-8410008D02*
X2484348Y-8400484D01*
X2617682Y-8400484D02*
X2741491Y-8400484D01*
X2741491Y-8400484D02*
X2674825Y-8476674D01*
X2674825Y-8476674D02*
X2703396Y-8476674D01*
X2703396Y-8476674D02*
X2722444Y-8486198D01*
X2722444Y-8486198D02*
X2731968Y-8495722D01*
X2731968Y-8495722D02*
X2741491Y-8514770D01*
X2741491Y-8514770D02*
X2741491Y-8562389D01*
X2741491Y-8562389D02*
X2731968Y-8581436D01*
X2731968Y-8581436D02*
X2722444Y-8590960D01*
X2722444Y-8590960D02*
X2703396Y-8600484D01*
X2703396Y-8600484D02*
X2646253Y-8600484D01*
X2646253Y-8600484D02*
X2627206Y-8590960D01*
X2627206Y-8590960D02*
X2617682Y-8581436D01*
X2931967Y-8600484D02*
X2817682Y-8600484D01*
X2874825Y-8600484D02*
X2874825Y-8400484D01*
X2874825Y-8400484D02*
X2855777Y-8429055D01*
X2855777Y-8429055D02*
X2836729Y-8448103D01*
X2836729Y-8448103D02*
X2817682Y-8457627D01*
X3112920Y-8400484D02*
X3017682Y-8400484D01*
X3017682Y-8400484D02*
X3008158Y-8495722D01*
X3008158Y-8495722D02*
X3017682Y-8486198D01*
X3017682Y-8486198D02*
X3036729Y-8476674D01*
X3036729Y-8476674D02*
X3084348Y-8476674D01*
X3084348Y-8476674D02*
X3103396Y-8486198D01*
X3103396Y-8486198D02*
X3112920Y-8495722D01*
X3112920Y-8495722D02*
X3122444Y-8514770D01*
X3122444Y-8514770D02*
X3122444Y-8562389D01*
X3122444Y-8562389D02*
X3112920Y-8581436D01*
X3112920Y-8581436D02*
X3103396Y-8590960D01*
X3103396Y-8590960D02*
X3084348Y-8600484D01*
X3084348Y-8600484D02*
X3036729Y-8600484D01*
X3036729Y-8600484D02*
X3017682Y-8590960D01*
X3017682Y-8590960D02*
X3008158Y-8581436D01*
X3198634Y-8400484D02*
X3198634Y-8438579D01*
X3274825Y-8400484D02*
X3274825Y-8438579D01*
X3570063Y-8676674D02*
X3560539Y-8667150D01*
X3560539Y-8667150D02*
X3541491Y-8638579D01*
X3541491Y-8638579D02*
X3531968Y-8619531D01*
X3531968Y-8619531D02*
X3522444Y-8590960D01*
X3522444Y-8590960D02*
X3512920Y-8543341D01*
X3512920Y-8543341D02*
X3512920Y-8505246D01*
X3512920Y-8505246D02*
X3522444Y-8457627D01*
X3522444Y-8457627D02*
X3531968Y-8429055D01*
X3531968Y-8429055D02*
X3541491Y-8410008D01*
X3541491Y-8410008D02*
X3560539Y-8381436D01*
X3560539Y-8381436D02*
X3570063Y-8371912D01*
X3731968Y-8400484D02*
X3693872Y-8400484D01*
X3693872Y-8400484D02*
X3674825Y-8410008D01*
X3674825Y-8410008D02*
X3665301Y-8419531D01*
X3665301Y-8419531D02*
X3646253Y-8448103D01*
X3646253Y-8448103D02*
X3636729Y-8486198D01*
X3636729Y-8486198D02*
X3636729Y-8562389D01*
X3636729Y-8562389D02*
X3646253Y-8581436D01*
X3646253Y-8581436D02*
X3655777Y-8590960D01*
X3655777Y-8590960D02*
X3674825Y-8600484D01*
X3674825Y-8600484D02*
X3712920Y-8600484D01*
X3712920Y-8600484D02*
X3731968Y-8590960D01*
X3731968Y-8590960D02*
X3741491Y-8581436D01*
X3741491Y-8581436D02*
X3751015Y-8562389D01*
X3751015Y-8562389D02*
X3751015Y-8514770D01*
X3751015Y-8514770D02*
X3741491Y-8495722D01*
X3741491Y-8495722D02*
X3731968Y-8486198D01*
X3731968Y-8486198D02*
X3712920Y-8476674D01*
X3712920Y-8476674D02*
X3674825Y-8476674D01*
X3674825Y-8476674D02*
X3655777Y-8486198D01*
X3655777Y-8486198D02*
X3646253Y-8495722D01*
X3646253Y-8495722D02*
X3636729Y-8514770D01*
X3827206Y-8419531D02*
X3836729Y-8410008D01*
X3836729Y-8410008D02*
X3855777Y-8400484D01*
X3855777Y-8400484D02*
X3903396Y-8400484D01*
X3903396Y-8400484D02*
X3922444Y-8410008D01*
X3922444Y-8410008D02*
X3931968Y-8419531D01*
X3931968Y-8419531D02*
X3941491Y-8438579D01*
X3941491Y-8438579D02*
X3941491Y-8457627D01*
X3941491Y-8457627D02*
X3931968Y-8486198D01*
X3931968Y-8486198D02*
X3817682Y-8600484D01*
X3817682Y-8600484D02*
X3941491Y-8600484D01*
X4179587Y-8600484D02*
X4179587Y-8400484D01*
X4265301Y-8600484D02*
X4265301Y-8495722D01*
X4265301Y-8495722D02*
X4255777Y-8476674D01*
X4255777Y-8476674D02*
X4236730Y-8467150D01*
X4236730Y-8467150D02*
X4208158Y-8467150D01*
X4208158Y-8467150D02*
X4189110Y-8476674D01*
X4189110Y-8476674D02*
X4179587Y-8486198D01*
X4389111Y-8600484D02*
X4370063Y-8590960D01*
X4370063Y-8590960D02*
X4360539Y-8581436D01*
X4360539Y-8581436D02*
X4351015Y-8562389D01*
X4351015Y-8562389D02*
X4351015Y-8505246D01*
X4351015Y-8505246D02*
X4360539Y-8486198D01*
X4360539Y-8486198D02*
X4370063Y-8476674D01*
X4370063Y-8476674D02*
X4389111Y-8467150D01*
X4389111Y-8467150D02*
X4417682Y-8467150D01*
X4417682Y-8467150D02*
X4436730Y-8476674D01*
X4436730Y-8476674D02*
X4446253Y-8486198D01*
X4446253Y-8486198D02*
X4455777Y-8505246D01*
X4455777Y-8505246D02*
X4455777Y-8562389D01*
X4455777Y-8562389D02*
X4446253Y-8581436D01*
X4446253Y-8581436D02*
X4436730Y-8590960D01*
X4436730Y-8590960D02*
X4417682Y-8600484D01*
X4417682Y-8600484D02*
X4389111Y-8600484D01*
X4570063Y-8600484D02*
X4551015Y-8590960D01*
X4551015Y-8590960D02*
X4541492Y-8571912D01*
X4541492Y-8571912D02*
X4541492Y-8400484D01*
X4722444Y-8590960D02*
X4703396Y-8600484D01*
X4703396Y-8600484D02*
X4665301Y-8600484D01*
X4665301Y-8600484D02*
X4646253Y-8590960D01*
X4646253Y-8590960D02*
X4636730Y-8571912D01*
X4636730Y-8571912D02*
X4636730Y-8495722D01*
X4636730Y-8495722D02*
X4646253Y-8476674D01*
X4646253Y-8476674D02*
X4665301Y-8467150D01*
X4665301Y-8467150D02*
X4703396Y-8467150D01*
X4703396Y-8467150D02*
X4722444Y-8476674D01*
X4722444Y-8476674D02*
X4731968Y-8495722D01*
X4731968Y-8495722D02*
X4731968Y-8514770D01*
X4731968Y-8514770D02*
X4636730Y-8533817D01*
X4808158Y-8590960D02*
X4827206Y-8600484D01*
X4827206Y-8600484D02*
X4865301Y-8600484D01*
X4865301Y-8600484D02*
X4884349Y-8590960D01*
X4884349Y-8590960D02*
X4893873Y-8571912D01*
X4893873Y-8571912D02*
X4893873Y-8562389D01*
X4893873Y-8562389D02*
X4884349Y-8543341D01*
X4884349Y-8543341D02*
X4865301Y-8533817D01*
X4865301Y-8533817D02*
X4836730Y-8533817D01*
X4836730Y-8533817D02*
X4817682Y-8524293D01*
X4817682Y-8524293D02*
X4808158Y-8505246D01*
X4808158Y-8505246D02*
X4808158Y-8495722D01*
X4808158Y-8495722D02*
X4817682Y-8476674D01*
X4817682Y-8476674D02*
X4836730Y-8467150D01*
X4836730Y-8467150D02*
X4865301Y-8467150D01*
X4865301Y-8467150D02*
X4884349Y-8476674D01*
X4960539Y-8676674D02*
X4970063Y-8667150D01*
X4970063Y-8667150D02*
X4989111Y-8638579D01*
X4989111Y-8638579D02*
X4998634Y-8619531D01*
X4998634Y-8619531D02*
X5008158Y-8590960D01*
X5008158Y-8590960D02*
X5017682Y-8543341D01*
X5017682Y-8543341D02*
X5017682Y-8505246D01*
X5017682Y-8505246D02*
X5008158Y-8457627D01*
X5008158Y-8457627D02*
X4998634Y-8429055D01*
X4998634Y-8429055D02*
X4989111Y-8410008D01*
X4989111Y-8410008D02*
X4970063Y-8381436D01*
X4970063Y-8381436D02*
X4960539Y-8371912D01*
D10*
X-55000Y-8723000D02*
X-55000Y-8823000D01*
X-105000Y-8773000D02*
X-5000Y-8773000D01*
D11*
X360539Y-8864484D02*
X246253Y-8864484D01*
X303396Y-8864484D02*
X303396Y-8664484D01*
X303396Y-8664484D02*
X284348Y-8693055D01*
X284348Y-8693055D02*
X265301Y-8712103D01*
X265301Y-8712103D02*
X246253Y-8721627D01*
X446253Y-8845436D02*
X455777Y-8854960D01*
X455777Y-8854960D02*
X446253Y-8864484D01*
X446253Y-8864484D02*
X436729Y-8854960D01*
X436729Y-8854960D02*
X446253Y-8845436D01*
X446253Y-8845436D02*
X446253Y-8864484D01*
X579586Y-8664484D02*
X598634Y-8664484D01*
X598634Y-8664484D02*
X617682Y-8674008D01*
X617682Y-8674008D02*
X627205Y-8683531D01*
X627205Y-8683531D02*
X636729Y-8702579D01*
X636729Y-8702579D02*
X646253Y-8740674D01*
X646253Y-8740674D02*
X646253Y-8788293D01*
X646253Y-8788293D02*
X636729Y-8826389D01*
X636729Y-8826389D02*
X627205Y-8845436D01*
X627205Y-8845436D02*
X617682Y-8854960D01*
X617682Y-8854960D02*
X598634Y-8864484D01*
X598634Y-8864484D02*
X579586Y-8864484D01*
X579586Y-8864484D02*
X560539Y-8854960D01*
X560539Y-8854960D02*
X551015Y-8845436D01*
X551015Y-8845436D02*
X541491Y-8826389D01*
X541491Y-8826389D02*
X531967Y-8788293D01*
X531967Y-8788293D02*
X531967Y-8740674D01*
X531967Y-8740674D02*
X541491Y-8702579D01*
X541491Y-8702579D02*
X551015Y-8683531D01*
X551015Y-8683531D02*
X560539Y-8674008D01*
X560539Y-8674008D02*
X579586Y-8664484D01*
X770062Y-8664484D02*
X789110Y-8664484D01*
X789110Y-8664484D02*
X808158Y-8674008D01*
X808158Y-8674008D02*
X817682Y-8683531D01*
X817682Y-8683531D02*
X827205Y-8702579D01*
X827205Y-8702579D02*
X836729Y-8740674D01*
X836729Y-8740674D02*
X836729Y-8788293D01*
X836729Y-8788293D02*
X827205Y-8826389D01*
X827205Y-8826389D02*
X817682Y-8845436D01*
X817682Y-8845436D02*
X808158Y-8854960D01*
X808158Y-8854960D02*
X789110Y-8864484D01*
X789110Y-8864484D02*
X770062Y-8864484D01*
X770062Y-8864484D02*
X751015Y-8854960D01*
X751015Y-8854960D02*
X741491Y-8845436D01*
X741491Y-8845436D02*
X731967Y-8826389D01*
X731967Y-8826389D02*
X722443Y-8788293D01*
X722443Y-8788293D02*
X722443Y-8740674D01*
X722443Y-8740674D02*
X731967Y-8702579D01*
X731967Y-8702579D02*
X741491Y-8683531D01*
X741491Y-8683531D02*
X751015Y-8674008D01*
X751015Y-8674008D02*
X770062Y-8664484D01*
X960539Y-8664484D02*
X979586Y-8664484D01*
X979586Y-8664484D02*
X998634Y-8674008D01*
X998634Y-8674008D02*
X1008158Y-8683531D01*
X1008158Y-8683531D02*
X1017682Y-8702579D01*
X1017682Y-8702579D02*
X1027205Y-8740674D01*
X1027205Y-8740674D02*
X1027205Y-8788293D01*
X1027205Y-8788293D02*
X1017682Y-8826389D01*
X1017682Y-8826389D02*
X1008158Y-8845436D01*
X1008158Y-8845436D02*
X998634Y-8854960D01*
X998634Y-8854960D02*
X979586Y-8864484D01*
X979586Y-8864484D02*
X960539Y-8864484D01*
X960539Y-8864484D02*
X941491Y-8854960D01*
X941491Y-8854960D02*
X931967Y-8845436D01*
X931967Y-8845436D02*
X922443Y-8826389D01*
X922443Y-8826389D02*
X912920Y-8788293D01*
X912920Y-8788293D02*
X912920Y-8740674D01*
X912920Y-8740674D02*
X922443Y-8702579D01*
X922443Y-8702579D02*
X931967Y-8683531D01*
X931967Y-8683531D02*
X941491Y-8674008D01*
X941491Y-8674008D02*
X960539Y-8664484D01*
X1112920Y-8864484D02*
X1112920Y-8731150D01*
X1112920Y-8750198D02*
X1122444Y-8740674D01*
X1122444Y-8740674D02*
X1141491Y-8731150D01*
X1141491Y-8731150D02*
X1170063Y-8731150D01*
X1170063Y-8731150D02*
X1189110Y-8740674D01*
X1189110Y-8740674D02*
X1198634Y-8759722D01*
X1198634Y-8759722D02*
X1198634Y-8864484D01*
X1198634Y-8759722D02*
X1208158Y-8740674D01*
X1208158Y-8740674D02*
X1227205Y-8731150D01*
X1227205Y-8731150D02*
X1255777Y-8731150D01*
X1255777Y-8731150D02*
X1274825Y-8740674D01*
X1274825Y-8740674D02*
X1284348Y-8759722D01*
X1284348Y-8759722D02*
X1284348Y-8864484D01*
X1379586Y-8864484D02*
X1379586Y-8731150D01*
X1379586Y-8750198D02*
X1389110Y-8740674D01*
X1389110Y-8740674D02*
X1408158Y-8731150D01*
X1408158Y-8731150D02*
X1436729Y-8731150D01*
X1436729Y-8731150D02*
X1455777Y-8740674D01*
X1455777Y-8740674D02*
X1465301Y-8759722D01*
X1465301Y-8759722D02*
X1465301Y-8864484D01*
X1465301Y-8759722D02*
X1474824Y-8740674D01*
X1474824Y-8740674D02*
X1493872Y-8731150D01*
X1493872Y-8731150D02*
X1522443Y-8731150D01*
X1522443Y-8731150D02*
X1541491Y-8740674D01*
X1541491Y-8740674D02*
X1551015Y-8759722D01*
X1551015Y-8759722D02*
X1551015Y-8864484D01*
X1941491Y-8654960D02*
X1770063Y-8912103D01*
X2198634Y-8664484D02*
X2217682Y-8664484D01*
X2217682Y-8664484D02*
X2236729Y-8674008D01*
X2236729Y-8674008D02*
X2246253Y-8683531D01*
X2246253Y-8683531D02*
X2255777Y-8702579D01*
X2255777Y-8702579D02*
X2265301Y-8740674D01*
X2265301Y-8740674D02*
X2265301Y-8788293D01*
X2265301Y-8788293D02*
X2255777Y-8826389D01*
X2255777Y-8826389D02*
X2246253Y-8845436D01*
X2246253Y-8845436D02*
X2236729Y-8854960D01*
X2236729Y-8854960D02*
X2217682Y-8864484D01*
X2217682Y-8864484D02*
X2198634Y-8864484D01*
X2198634Y-8864484D02*
X2179587Y-8854960D01*
X2179587Y-8854960D02*
X2170063Y-8845436D01*
X2170063Y-8845436D02*
X2160539Y-8826389D01*
X2160539Y-8826389D02*
X2151015Y-8788293D01*
X2151015Y-8788293D02*
X2151015Y-8740674D01*
X2151015Y-8740674D02*
X2160539Y-8702579D01*
X2160539Y-8702579D02*
X2170063Y-8683531D01*
X2170063Y-8683531D02*
X2179587Y-8674008D01*
X2179587Y-8674008D02*
X2198634Y-8664484D01*
X2351015Y-8845436D02*
X2360539Y-8854960D01*
X2360539Y-8854960D02*
X2351015Y-8864484D01*
X2351015Y-8864484D02*
X2341491Y-8854960D01*
X2341491Y-8854960D02*
X2351015Y-8845436D01*
X2351015Y-8845436D02*
X2351015Y-8864484D01*
X2484348Y-8664484D02*
X2503396Y-8664484D01*
X2503396Y-8664484D02*
X2522444Y-8674008D01*
X2522444Y-8674008D02*
X2531968Y-8683531D01*
X2531968Y-8683531D02*
X2541491Y-8702579D01*
X2541491Y-8702579D02*
X2551015Y-8740674D01*
X2551015Y-8740674D02*
X2551015Y-8788293D01*
X2551015Y-8788293D02*
X2541491Y-8826389D01*
X2541491Y-8826389D02*
X2531968Y-8845436D01*
X2531968Y-8845436D02*
X2522444Y-8854960D01*
X2522444Y-8854960D02*
X2503396Y-8864484D01*
X2503396Y-8864484D02*
X2484348Y-8864484D01*
X2484348Y-8864484D02*
X2465301Y-8854960D01*
X2465301Y-8854960D02*
X2455777Y-8845436D01*
X2455777Y-8845436D02*
X2446253Y-8826389D01*
X2446253Y-8826389D02*
X2436729Y-8788293D01*
X2436729Y-8788293D02*
X2436729Y-8740674D01*
X2436729Y-8740674D02*
X2446253Y-8702579D01*
X2446253Y-8702579D02*
X2455777Y-8683531D01*
X2455777Y-8683531D02*
X2465301Y-8674008D01*
X2465301Y-8674008D02*
X2484348Y-8664484D01*
X2617682Y-8664484D02*
X2741491Y-8664484D01*
X2741491Y-8664484D02*
X2674825Y-8740674D01*
X2674825Y-8740674D02*
X2703396Y-8740674D01*
X2703396Y-8740674D02*
X2722444Y-8750198D01*
X2722444Y-8750198D02*
X2731968Y-8759722D01*
X2731968Y-8759722D02*
X2741491Y-8778770D01*
X2741491Y-8778770D02*
X2741491Y-8826389D01*
X2741491Y-8826389D02*
X2731968Y-8845436D01*
X2731968Y-8845436D02*
X2722444Y-8854960D01*
X2722444Y-8854960D02*
X2703396Y-8864484D01*
X2703396Y-8864484D02*
X2646253Y-8864484D01*
X2646253Y-8864484D02*
X2627206Y-8854960D01*
X2627206Y-8854960D02*
X2617682Y-8845436D01*
X2836729Y-8864484D02*
X2874825Y-8864484D01*
X2874825Y-8864484D02*
X2893872Y-8854960D01*
X2893872Y-8854960D02*
X2903396Y-8845436D01*
X2903396Y-8845436D02*
X2922444Y-8816865D01*
X2922444Y-8816865D02*
X2931967Y-8778770D01*
X2931967Y-8778770D02*
X2931967Y-8702579D01*
X2931967Y-8702579D02*
X2922444Y-8683531D01*
X2922444Y-8683531D02*
X2912920Y-8674008D01*
X2912920Y-8674008D02*
X2893872Y-8664484D01*
X2893872Y-8664484D02*
X2855777Y-8664484D01*
X2855777Y-8664484D02*
X2836729Y-8674008D01*
X2836729Y-8674008D02*
X2827206Y-8683531D01*
X2827206Y-8683531D02*
X2817682Y-8702579D01*
X2817682Y-8702579D02*
X2817682Y-8750198D01*
X2817682Y-8750198D02*
X2827206Y-8769246D01*
X2827206Y-8769246D02*
X2836729Y-8778770D01*
X2836729Y-8778770D02*
X2855777Y-8788293D01*
X2855777Y-8788293D02*
X2893872Y-8788293D01*
X2893872Y-8788293D02*
X2912920Y-8778770D01*
X2912920Y-8778770D02*
X2922444Y-8769246D01*
X2922444Y-8769246D02*
X2931967Y-8750198D01*
X3103396Y-8731150D02*
X3103396Y-8864484D01*
X3055777Y-8654960D02*
X3008158Y-8797817D01*
X3008158Y-8797817D02*
X3131967Y-8797817D01*
X3198634Y-8664484D02*
X3198634Y-8702579D01*
X3274825Y-8664484D02*
X3274825Y-8702579D01*
X3570063Y-8940674D02*
X3560539Y-8931150D01*
X3560539Y-8931150D02*
X3541491Y-8902579D01*
X3541491Y-8902579D02*
X3531968Y-8883531D01*
X3531968Y-8883531D02*
X3522444Y-8854960D01*
X3522444Y-8854960D02*
X3512920Y-8807341D01*
X3512920Y-8807341D02*
X3512920Y-8769246D01*
X3512920Y-8769246D02*
X3522444Y-8721627D01*
X3522444Y-8721627D02*
X3531968Y-8693055D01*
X3531968Y-8693055D02*
X3541491Y-8674008D01*
X3541491Y-8674008D02*
X3560539Y-8645436D01*
X3560539Y-8645436D02*
X3570063Y-8635912D01*
X3627206Y-8664484D02*
X3760539Y-8664484D01*
X3760539Y-8664484D02*
X3674825Y-8864484D01*
X3874825Y-8664484D02*
X3893872Y-8664484D01*
X3893872Y-8664484D02*
X3912920Y-8674008D01*
X3912920Y-8674008D02*
X3922444Y-8683531D01*
X3922444Y-8683531D02*
X3931968Y-8702579D01*
X3931968Y-8702579D02*
X3941491Y-8740674D01*
X3941491Y-8740674D02*
X3941491Y-8788293D01*
X3941491Y-8788293D02*
X3931968Y-8826389D01*
X3931968Y-8826389D02*
X3922444Y-8845436D01*
X3922444Y-8845436D02*
X3912920Y-8854960D01*
X3912920Y-8854960D02*
X3893872Y-8864484D01*
X3893872Y-8864484D02*
X3874825Y-8864484D01*
X3874825Y-8864484D02*
X3855777Y-8854960D01*
X3855777Y-8854960D02*
X3846253Y-8845436D01*
X3846253Y-8845436D02*
X3836729Y-8826389D01*
X3836729Y-8826389D02*
X3827206Y-8788293D01*
X3827206Y-8788293D02*
X3827206Y-8740674D01*
X3827206Y-8740674D02*
X3836729Y-8702579D01*
X3836729Y-8702579D02*
X3846253Y-8683531D01*
X3846253Y-8683531D02*
X3855777Y-8674008D01*
X3855777Y-8674008D02*
X3874825Y-8664484D01*
X4179587Y-8864484D02*
X4179587Y-8664484D01*
X4265301Y-8864484D02*
X4265301Y-8759722D01*
X4265301Y-8759722D02*
X4255777Y-8740674D01*
X4255777Y-8740674D02*
X4236730Y-8731150D01*
X4236730Y-8731150D02*
X4208158Y-8731150D01*
X4208158Y-8731150D02*
X4189110Y-8740674D01*
X4189110Y-8740674D02*
X4179587Y-8750198D01*
X4389111Y-8864484D02*
X4370063Y-8854960D01*
X4370063Y-8854960D02*
X4360539Y-8845436D01*
X4360539Y-8845436D02*
X4351015Y-8826389D01*
X4351015Y-8826389D02*
X4351015Y-8769246D01*
X4351015Y-8769246D02*
X4360539Y-8750198D01*
X4360539Y-8750198D02*
X4370063Y-8740674D01*
X4370063Y-8740674D02*
X4389111Y-8731150D01*
X4389111Y-8731150D02*
X4417682Y-8731150D01*
X4417682Y-8731150D02*
X4436730Y-8740674D01*
X4436730Y-8740674D02*
X4446253Y-8750198D01*
X4446253Y-8750198D02*
X4455777Y-8769246D01*
X4455777Y-8769246D02*
X4455777Y-8826389D01*
X4455777Y-8826389D02*
X4446253Y-8845436D01*
X4446253Y-8845436D02*
X4436730Y-8854960D01*
X4436730Y-8854960D02*
X4417682Y-8864484D01*
X4417682Y-8864484D02*
X4389111Y-8864484D01*
X4570063Y-8864484D02*
X4551015Y-8854960D01*
X4551015Y-8854960D02*
X4541492Y-8835912D01*
X4541492Y-8835912D02*
X4541492Y-8664484D01*
X4722444Y-8854960D02*
X4703396Y-8864484D01*
X4703396Y-8864484D02*
X4665301Y-8864484D01*
X4665301Y-8864484D02*
X4646253Y-8854960D01*
X4646253Y-8854960D02*
X4636730Y-8835912D01*
X4636730Y-8835912D02*
X4636730Y-8759722D01*
X4636730Y-8759722D02*
X4646253Y-8740674D01*
X4646253Y-8740674D02*
X4665301Y-8731150D01*
X4665301Y-8731150D02*
X4703396Y-8731150D01*
X4703396Y-8731150D02*
X4722444Y-8740674D01*
X4722444Y-8740674D02*
X4731968Y-8759722D01*
X4731968Y-8759722D02*
X4731968Y-8778770D01*
X4731968Y-8778770D02*
X4636730Y-8797817D01*
X4808158Y-8854960D02*
X4827206Y-8864484D01*
X4827206Y-8864484D02*
X4865301Y-8864484D01*
X4865301Y-8864484D02*
X4884349Y-8854960D01*
X4884349Y-8854960D02*
X4893873Y-8835912D01*
X4893873Y-8835912D02*
X4893873Y-8826389D01*
X4893873Y-8826389D02*
X4884349Y-8807341D01*
X4884349Y-8807341D02*
X4865301Y-8797817D01*
X4865301Y-8797817D02*
X4836730Y-8797817D01*
X4836730Y-8797817D02*
X4817682Y-8788293D01*
X4817682Y-8788293D02*
X4808158Y-8769246D01*
X4808158Y-8769246D02*
X4808158Y-8759722D01*
X4808158Y-8759722D02*
X4817682Y-8740674D01*
X4817682Y-8740674D02*
X4836730Y-8731150D01*
X4836730Y-8731150D02*
X4865301Y-8731150D01*
X4865301Y-8731150D02*
X4884349Y-8740674D01*
X4960539Y-8940674D02*
X4970063Y-8931150D01*
X4970063Y-8931150D02*
X4989111Y-8902579D01*
X4989111Y-8902579D02*
X4998634Y-8883531D01*
X4998634Y-8883531D02*
X5008158Y-8854960D01*
X5008158Y-8854960D02*
X5017682Y-8807341D01*
X5017682Y-8807341D02*
X5017682Y-8769246D01*
X5017682Y-8769246D02*
X5008158Y-8721627D01*
X5008158Y-8721627D02*
X4998634Y-8693055D01*
X4998634Y-8693055D02*
X4989111Y-8674008D01*
X4989111Y-8674008D02*
X4970063Y-8645436D01*
X4970063Y-8645436D02*
X4960539Y-8635912D01*
X-34289Y-9107711D02*
X-34289Y-8966289D01*
X-175711Y-8966289D01*
X-175711Y-9107711D01*
X-34289Y-9107711D01*
X236729Y-8928484D02*
X360539Y-8928484D01*
X360539Y-8928484D02*
X293872Y-9004674D01*
X293872Y-9004674D02*
X322444Y-9004674D01*
X322444Y-9004674D02*
X341491Y-9014198D01*
X341491Y-9014198D02*
X351015Y-9023722D01*
X351015Y-9023722D02*
X360539Y-9042770D01*
X360539Y-9042770D02*
X360539Y-9090389D01*
X360539Y-9090389D02*
X351015Y-9109436D01*
X351015Y-9109436D02*
X341491Y-9118960D01*
X341491Y-9118960D02*
X322444Y-9128484D01*
X322444Y-9128484D02*
X265301Y-9128484D01*
X265301Y-9128484D02*
X246253Y-9118960D01*
X246253Y-9118960D02*
X236729Y-9109436D01*
X446253Y-9109436D02*
X455777Y-9118960D01*
X455777Y-9118960D02*
X446253Y-9128484D01*
X446253Y-9128484D02*
X436729Y-9118960D01*
X436729Y-9118960D02*
X446253Y-9109436D01*
X446253Y-9109436D02*
X446253Y-9128484D01*
X531967Y-8947531D02*
X541491Y-8938008D01*
X541491Y-8938008D02*
X560539Y-8928484D01*
X560539Y-8928484D02*
X608158Y-8928484D01*
X608158Y-8928484D02*
X627205Y-8938008D01*
X627205Y-8938008D02*
X636729Y-8947531D01*
X636729Y-8947531D02*
X646253Y-8966579D01*
X646253Y-8966579D02*
X646253Y-8985627D01*
X646253Y-8985627D02*
X636729Y-9014198D01*
X636729Y-9014198D02*
X522443Y-9128484D01*
X522443Y-9128484D02*
X646253Y-9128484D01*
X770062Y-8928484D02*
X789110Y-8928484D01*
X789110Y-8928484D02*
X808158Y-8938008D01*
X808158Y-8938008D02*
X817682Y-8947531D01*
X817682Y-8947531D02*
X827205Y-8966579D01*
X827205Y-8966579D02*
X836729Y-9004674D01*
X836729Y-9004674D02*
X836729Y-9052293D01*
X836729Y-9052293D02*
X827205Y-9090389D01*
X827205Y-9090389D02*
X817682Y-9109436D01*
X817682Y-9109436D02*
X808158Y-9118960D01*
X808158Y-9118960D02*
X789110Y-9128484D01*
X789110Y-9128484D02*
X770062Y-9128484D01*
X770062Y-9128484D02*
X751015Y-9118960D01*
X751015Y-9118960D02*
X741491Y-9109436D01*
X741491Y-9109436D02*
X731967Y-9090389D01*
X731967Y-9090389D02*
X722443Y-9052293D01*
X722443Y-9052293D02*
X722443Y-9004674D01*
X722443Y-9004674D02*
X731967Y-8966579D01*
X731967Y-8966579D02*
X741491Y-8947531D01*
X741491Y-8947531D02*
X751015Y-8938008D01*
X751015Y-8938008D02*
X770062Y-8928484D01*
X960539Y-8928484D02*
X979586Y-8928484D01*
X979586Y-8928484D02*
X998634Y-8938008D01*
X998634Y-8938008D02*
X1008158Y-8947531D01*
X1008158Y-8947531D02*
X1017682Y-8966579D01*
X1017682Y-8966579D02*
X1027205Y-9004674D01*
X1027205Y-9004674D02*
X1027205Y-9052293D01*
X1027205Y-9052293D02*
X1017682Y-9090389D01*
X1017682Y-9090389D02*
X1008158Y-9109436D01*
X1008158Y-9109436D02*
X998634Y-9118960D01*
X998634Y-9118960D02*
X979586Y-9128484D01*
X979586Y-9128484D02*
X960539Y-9128484D01*
X960539Y-9128484D02*
X941491Y-9118960D01*
X941491Y-9118960D02*
X931967Y-9109436D01*
X931967Y-9109436D02*
X922443Y-9090389D01*
X922443Y-9090389D02*
X912920Y-9052293D01*
X912920Y-9052293D02*
X912920Y-9004674D01*
X912920Y-9004674D02*
X922443Y-8966579D01*
X922443Y-8966579D02*
X931967Y-8947531D01*
X931967Y-8947531D02*
X941491Y-8938008D01*
X941491Y-8938008D02*
X960539Y-8928484D01*
X1112920Y-9128484D02*
X1112920Y-8995150D01*
X1112920Y-9014198D02*
X1122444Y-9004674D01*
X1122444Y-9004674D02*
X1141491Y-8995150D01*
X1141491Y-8995150D02*
X1170063Y-8995150D01*
X1170063Y-8995150D02*
X1189110Y-9004674D01*
X1189110Y-9004674D02*
X1198634Y-9023722D01*
X1198634Y-9023722D02*
X1198634Y-9128484D01*
X1198634Y-9023722D02*
X1208158Y-9004674D01*
X1208158Y-9004674D02*
X1227205Y-8995150D01*
X1227205Y-8995150D02*
X1255777Y-8995150D01*
X1255777Y-8995150D02*
X1274825Y-9004674D01*
X1274825Y-9004674D02*
X1284348Y-9023722D01*
X1284348Y-9023722D02*
X1284348Y-9128484D01*
X1379586Y-9128484D02*
X1379586Y-8995150D01*
X1379586Y-9014198D02*
X1389110Y-9004674D01*
X1389110Y-9004674D02*
X1408158Y-8995150D01*
X1408158Y-8995150D02*
X1436729Y-8995150D01*
X1436729Y-8995150D02*
X1455777Y-9004674D01*
X1455777Y-9004674D02*
X1465301Y-9023722D01*
X1465301Y-9023722D02*
X1465301Y-9128484D01*
X1465301Y-9023722D02*
X1474824Y-9004674D01*
X1474824Y-9004674D02*
X1493872Y-8995150D01*
X1493872Y-8995150D02*
X1522443Y-8995150D01*
X1522443Y-8995150D02*
X1541491Y-9004674D01*
X1541491Y-9004674D02*
X1551015Y-9023722D01*
X1551015Y-9023722D02*
X1551015Y-9128484D01*
X1941491Y-8918960D02*
X1770063Y-9176103D01*
X2198634Y-8928484D02*
X2217682Y-8928484D01*
X2217682Y-8928484D02*
X2236729Y-8938008D01*
X2236729Y-8938008D02*
X2246253Y-8947531D01*
X2246253Y-8947531D02*
X2255777Y-8966579D01*
X2255777Y-8966579D02*
X2265301Y-9004674D01*
X2265301Y-9004674D02*
X2265301Y-9052293D01*
X2265301Y-9052293D02*
X2255777Y-9090389D01*
X2255777Y-9090389D02*
X2246253Y-9109436D01*
X2246253Y-9109436D02*
X2236729Y-9118960D01*
X2236729Y-9118960D02*
X2217682Y-9128484D01*
X2217682Y-9128484D02*
X2198634Y-9128484D01*
X2198634Y-9128484D02*
X2179587Y-9118960D01*
X2179587Y-9118960D02*
X2170063Y-9109436D01*
X2170063Y-9109436D02*
X2160539Y-9090389D01*
X2160539Y-9090389D02*
X2151015Y-9052293D01*
X2151015Y-9052293D02*
X2151015Y-9004674D01*
X2151015Y-9004674D02*
X2160539Y-8966579D01*
X2160539Y-8966579D02*
X2170063Y-8947531D01*
X2170063Y-8947531D02*
X2179587Y-8938008D01*
X2179587Y-8938008D02*
X2198634Y-8928484D01*
X2351015Y-9109436D02*
X2360539Y-9118960D01*
X2360539Y-9118960D02*
X2351015Y-9128484D01*
X2351015Y-9128484D02*
X2341491Y-9118960D01*
X2341491Y-9118960D02*
X2351015Y-9109436D01*
X2351015Y-9109436D02*
X2351015Y-9128484D01*
X2551015Y-9128484D02*
X2436729Y-9128484D01*
X2493872Y-9128484D02*
X2493872Y-8928484D01*
X2493872Y-8928484D02*
X2474825Y-8957055D01*
X2474825Y-8957055D02*
X2455777Y-8976103D01*
X2455777Y-8976103D02*
X2436729Y-8985627D01*
X2627206Y-8947531D02*
X2636729Y-8938008D01*
X2636729Y-8938008D02*
X2655777Y-8928484D01*
X2655777Y-8928484D02*
X2703396Y-8928484D01*
X2703396Y-8928484D02*
X2722444Y-8938008D01*
X2722444Y-8938008D02*
X2731968Y-8947531D01*
X2731968Y-8947531D02*
X2741491Y-8966579D01*
X2741491Y-8966579D02*
X2741491Y-8985627D01*
X2741491Y-8985627D02*
X2731968Y-9014198D01*
X2731968Y-9014198D02*
X2617682Y-9128484D01*
X2617682Y-9128484D02*
X2741491Y-9128484D01*
X2912920Y-8928484D02*
X2874825Y-8928484D01*
X2874825Y-8928484D02*
X2855777Y-8938008D01*
X2855777Y-8938008D02*
X2846253Y-8947531D01*
X2846253Y-8947531D02*
X2827206Y-8976103D01*
X2827206Y-8976103D02*
X2817682Y-9014198D01*
X2817682Y-9014198D02*
X2817682Y-9090389D01*
X2817682Y-9090389D02*
X2827206Y-9109436D01*
X2827206Y-9109436D02*
X2836729Y-9118960D01*
X2836729Y-9118960D02*
X2855777Y-9128484D01*
X2855777Y-9128484D02*
X2893872Y-9128484D01*
X2893872Y-9128484D02*
X2912920Y-9118960D01*
X2912920Y-9118960D02*
X2922444Y-9109436D01*
X2922444Y-9109436D02*
X2931967Y-9090389D01*
X2931967Y-9090389D02*
X2931967Y-9042770D01*
X2931967Y-9042770D02*
X2922444Y-9023722D01*
X2922444Y-9023722D02*
X2912920Y-9014198D01*
X2912920Y-9014198D02*
X2893872Y-9004674D01*
X2893872Y-9004674D02*
X2855777Y-9004674D01*
X2855777Y-9004674D02*
X2836729Y-9014198D01*
X2836729Y-9014198D02*
X2827206Y-9023722D01*
X2827206Y-9023722D02*
X2817682Y-9042770D01*
X3055777Y-8928484D02*
X3074825Y-8928484D01*
X3074825Y-8928484D02*
X3093872Y-8938008D01*
X3093872Y-8938008D02*
X3103396Y-8947531D01*
X3103396Y-8947531D02*
X3112920Y-8966579D01*
X3112920Y-8966579D02*
X3122444Y-9004674D01*
X3122444Y-9004674D02*
X3122444Y-9052293D01*
X3122444Y-9052293D02*
X3112920Y-9090389D01*
X3112920Y-9090389D02*
X3103396Y-9109436D01*
X3103396Y-9109436D02*
X3093872Y-9118960D01*
X3093872Y-9118960D02*
X3074825Y-9128484D01*
X3074825Y-9128484D02*
X3055777Y-9128484D01*
X3055777Y-9128484D02*
X3036729Y-9118960D01*
X3036729Y-9118960D02*
X3027206Y-9109436D01*
X3027206Y-9109436D02*
X3017682Y-9090389D01*
X3017682Y-9090389D02*
X3008158Y-9052293D01*
X3008158Y-9052293D02*
X3008158Y-9004674D01*
X3008158Y-9004674D02*
X3017682Y-8966579D01*
X3017682Y-8966579D02*
X3027206Y-8947531D01*
X3027206Y-8947531D02*
X3036729Y-8938008D01*
X3036729Y-8938008D02*
X3055777Y-8928484D01*
X3198634Y-8928484D02*
X3198634Y-8966579D01*
X3274825Y-8928484D02*
X3274825Y-8966579D01*
X3570063Y-9204674D02*
X3560539Y-9195150D01*
X3560539Y-9195150D02*
X3541491Y-9166579D01*
X3541491Y-9166579D02*
X3531968Y-9147531D01*
X3531968Y-9147531D02*
X3522444Y-9118960D01*
X3522444Y-9118960D02*
X3512920Y-9071341D01*
X3512920Y-9071341D02*
X3512920Y-9033246D01*
X3512920Y-9033246D02*
X3522444Y-8985627D01*
X3522444Y-8985627D02*
X3531968Y-8957055D01*
X3531968Y-8957055D02*
X3541491Y-8938008D01*
X3541491Y-8938008D02*
X3560539Y-8909436D01*
X3560539Y-8909436D02*
X3570063Y-8899912D01*
X3731968Y-8995150D02*
X3731968Y-9128484D01*
X3684348Y-8918960D02*
X3636729Y-9061817D01*
X3636729Y-9061817D02*
X3760539Y-9061817D01*
X3989110Y-9128484D02*
X3989110Y-8928484D01*
X4074825Y-9128484D02*
X4074825Y-9023722D01*
X4074825Y-9023722D02*
X4065301Y-9004674D01*
X4065301Y-9004674D02*
X4046253Y-8995150D01*
X4046253Y-8995150D02*
X4017682Y-8995150D01*
X4017682Y-8995150D02*
X3998634Y-9004674D01*
X3998634Y-9004674D02*
X3989110Y-9014198D01*
X4198634Y-9128484D02*
X4179587Y-9118960D01*
X4179587Y-9118960D02*
X4170063Y-9109436D01*
X4170063Y-9109436D02*
X4160539Y-9090389D01*
X4160539Y-9090389D02*
X4160539Y-9033246D01*
X4160539Y-9033246D02*
X4170063Y-9014198D01*
X4170063Y-9014198D02*
X4179587Y-9004674D01*
X4179587Y-9004674D02*
X4198634Y-8995150D01*
X4198634Y-8995150D02*
X4227206Y-8995150D01*
X4227206Y-8995150D02*
X4246253Y-9004674D01*
X4246253Y-9004674D02*
X4255777Y-9014198D01*
X4255777Y-9014198D02*
X4265301Y-9033246D01*
X4265301Y-9033246D02*
X4265301Y-9090389D01*
X4265301Y-9090389D02*
X4255777Y-9109436D01*
X4255777Y-9109436D02*
X4246253Y-9118960D01*
X4246253Y-9118960D02*
X4227206Y-9128484D01*
X4227206Y-9128484D02*
X4198634Y-9128484D01*
X4379587Y-9128484D02*
X4360539Y-9118960D01*
X4360539Y-9118960D02*
X4351015Y-9099912D01*
X4351015Y-9099912D02*
X4351015Y-8928484D01*
X4531968Y-9118960D02*
X4512920Y-9128484D01*
X4512920Y-9128484D02*
X4474825Y-9128484D01*
X4474825Y-9128484D02*
X4455777Y-9118960D01*
X4455777Y-9118960D02*
X4446253Y-9099912D01*
X4446253Y-9099912D02*
X4446253Y-9023722D01*
X4446253Y-9023722D02*
X4455777Y-9004674D01*
X4455777Y-9004674D02*
X4474825Y-8995150D01*
X4474825Y-8995150D02*
X4512920Y-8995150D01*
X4512920Y-8995150D02*
X4531968Y-9004674D01*
X4531968Y-9004674D02*
X4541492Y-9023722D01*
X4541492Y-9023722D02*
X4541492Y-9042770D01*
X4541492Y-9042770D02*
X4446253Y-9061817D01*
X4617682Y-9118960D02*
X4636730Y-9128484D01*
X4636730Y-9128484D02*
X4674825Y-9128484D01*
X4674825Y-9128484D02*
X4693873Y-9118960D01*
X4693873Y-9118960D02*
X4703396Y-9099912D01*
X4703396Y-9099912D02*
X4703396Y-9090389D01*
X4703396Y-9090389D02*
X4693873Y-9071341D01*
X4693873Y-9071341D02*
X4674825Y-9061817D01*
X4674825Y-9061817D02*
X4646253Y-9061817D01*
X4646253Y-9061817D02*
X4627206Y-9052293D01*
X4627206Y-9052293D02*
X4617682Y-9033246D01*
X4617682Y-9033246D02*
X4617682Y-9023722D01*
X4617682Y-9023722D02*
X4627206Y-9004674D01*
X4627206Y-9004674D02*
X4646253Y-8995150D01*
X4646253Y-8995150D02*
X4674825Y-8995150D01*
X4674825Y-8995150D02*
X4693873Y-9004674D01*
X4770063Y-9204674D02*
X4779587Y-9195150D01*
X4779587Y-9195150D02*
X4798634Y-9166579D01*
X4798634Y-9166579D02*
X4808158Y-9147531D01*
X4808158Y-9147531D02*
X4817682Y-9118960D01*
X4817682Y-9118960D02*
X4827206Y-9071341D01*
X4827206Y-9071341D02*
X4827206Y-9033246D01*
X4827206Y-9033246D02*
X4817682Y-8985627D01*
X4817682Y-8985627D02*
X4808158Y-8957055D01*
X4808158Y-8957055D02*
X4798634Y-8938008D01*
X4798634Y-8938008D02*
X4779587Y-8909436D01*
X4779587Y-8909436D02*
X4770063Y-8899912D01*
X5131968Y-9204674D02*
X5122444Y-9195150D01*
X5122444Y-9195150D02*
X5103396Y-9166579D01*
X5103396Y-9166579D02*
X5093873Y-9147531D01*
X5093873Y-9147531D02*
X5084349Y-9118960D01*
X5084349Y-9118960D02*
X5074825Y-9071341D01*
X5074825Y-9071341D02*
X5074825Y-9033246D01*
X5074825Y-9033246D02*
X5084349Y-8985627D01*
X5084349Y-8985627D02*
X5093873Y-8957055D01*
X5093873Y-8957055D02*
X5103396Y-8938008D01*
X5103396Y-8938008D02*
X5122444Y-8909436D01*
X5122444Y-8909436D02*
X5131968Y-8899912D01*
X5208158Y-8995150D02*
X5208158Y-9128484D01*
X5208158Y-9014198D02*
X5217682Y-9004674D01*
X5217682Y-9004674D02*
X5236730Y-8995150D01*
X5236730Y-8995150D02*
X5265301Y-8995150D01*
X5265301Y-8995150D02*
X5284349Y-9004674D01*
X5284349Y-9004674D02*
X5293873Y-9023722D01*
X5293873Y-9023722D02*
X5293873Y-9128484D01*
X5417682Y-9128484D02*
X5398634Y-9118960D01*
X5398634Y-9118960D02*
X5389111Y-9109436D01*
X5389111Y-9109436D02*
X5379587Y-9090389D01*
X5379587Y-9090389D02*
X5379587Y-9033246D01*
X5379587Y-9033246D02*
X5389111Y-9014198D01*
X5389111Y-9014198D02*
X5398634Y-9004674D01*
X5398634Y-9004674D02*
X5417682Y-8995150D01*
X5417682Y-8995150D02*
X5446254Y-8995150D01*
X5446254Y-8995150D02*
X5465301Y-9004674D01*
X5465301Y-9004674D02*
X5474825Y-9014198D01*
X5474825Y-9014198D02*
X5484349Y-9033246D01*
X5484349Y-9033246D02*
X5484349Y-9090389D01*
X5484349Y-9090389D02*
X5474825Y-9109436D01*
X5474825Y-9109436D02*
X5465301Y-9118960D01*
X5465301Y-9118960D02*
X5446254Y-9128484D01*
X5446254Y-9128484D02*
X5417682Y-9128484D01*
X5541492Y-8995150D02*
X5617682Y-8995150D01*
X5570063Y-8928484D02*
X5570063Y-9099912D01*
X5570063Y-9099912D02*
X5579587Y-9118960D01*
X5579587Y-9118960D02*
X5598634Y-9128484D01*
X5598634Y-9128484D02*
X5617682Y-9128484D01*
X5836730Y-8995150D02*
X5836730Y-9195150D01*
X5836730Y-9004674D02*
X5855777Y-8995150D01*
X5855777Y-8995150D02*
X5893873Y-8995150D01*
X5893873Y-8995150D02*
X5912920Y-9004674D01*
X5912920Y-9004674D02*
X5922444Y-9014198D01*
X5922444Y-9014198D02*
X5931968Y-9033246D01*
X5931968Y-9033246D02*
X5931968Y-9090389D01*
X5931968Y-9090389D02*
X5922444Y-9109436D01*
X5922444Y-9109436D02*
X5912920Y-9118960D01*
X5912920Y-9118960D02*
X5893873Y-9128484D01*
X5893873Y-9128484D02*
X5855777Y-9128484D01*
X5855777Y-9128484D02*
X5836730Y-9118960D01*
X6046253Y-9128484D02*
X6027206Y-9118960D01*
X6027206Y-9118960D02*
X6017682Y-9099912D01*
X6017682Y-9099912D02*
X6017682Y-8928484D01*
X6208158Y-9128484D02*
X6208158Y-9023722D01*
X6208158Y-9023722D02*
X6198634Y-9004674D01*
X6198634Y-9004674D02*
X6179587Y-8995150D01*
X6179587Y-8995150D02*
X6141492Y-8995150D01*
X6141492Y-8995150D02*
X6122444Y-9004674D01*
X6208158Y-9118960D02*
X6189111Y-9128484D01*
X6189111Y-9128484D02*
X6141492Y-9128484D01*
X6141492Y-9128484D02*
X6122444Y-9118960D01*
X6122444Y-9118960D02*
X6112920Y-9099912D01*
X6112920Y-9099912D02*
X6112920Y-9080865D01*
X6112920Y-9080865D02*
X6122444Y-9061817D01*
X6122444Y-9061817D02*
X6141492Y-9052293D01*
X6141492Y-9052293D02*
X6189111Y-9052293D01*
X6189111Y-9052293D02*
X6208158Y-9042770D01*
X6274825Y-8995150D02*
X6351015Y-8995150D01*
X6303396Y-8928484D02*
X6303396Y-9099912D01*
X6303396Y-9099912D02*
X6312920Y-9118960D01*
X6312920Y-9118960D02*
X6331968Y-9128484D01*
X6331968Y-9128484D02*
X6351015Y-9128484D01*
X6493873Y-9118960D02*
X6474825Y-9128484D01*
X6474825Y-9128484D02*
X6436730Y-9128484D01*
X6436730Y-9128484D02*
X6417682Y-9118960D01*
X6417682Y-9118960D02*
X6408158Y-9099912D01*
X6408158Y-9099912D02*
X6408158Y-9023722D01*
X6408158Y-9023722D02*
X6417682Y-9004674D01*
X6417682Y-9004674D02*
X6436730Y-8995150D01*
X6436730Y-8995150D02*
X6474825Y-8995150D01*
X6474825Y-8995150D02*
X6493873Y-9004674D01*
X6493873Y-9004674D02*
X6503396Y-9023722D01*
X6503396Y-9023722D02*
X6503396Y-9042770D01*
X6503396Y-9042770D02*
X6408158Y-9061817D01*
X6674825Y-9128484D02*
X6674825Y-8928484D01*
X6674825Y-9118960D02*
X6655777Y-9128484D01*
X6655777Y-9128484D02*
X6617682Y-9128484D01*
X6617682Y-9128484D02*
X6598634Y-9118960D01*
X6598634Y-9118960D02*
X6589111Y-9109436D01*
X6589111Y-9109436D02*
X6579587Y-9090389D01*
X6579587Y-9090389D02*
X6579587Y-9033246D01*
X6579587Y-9033246D02*
X6589111Y-9014198D01*
X6589111Y-9014198D02*
X6598634Y-9004674D01*
X6598634Y-9004674D02*
X6617682Y-8995150D01*
X6617682Y-8995150D02*
X6655777Y-8995150D01*
X6655777Y-8995150D02*
X6674825Y-9004674D01*
X6751015Y-9204674D02*
X6760539Y-9195150D01*
X6760539Y-9195150D02*
X6779587Y-9166579D01*
X6779587Y-9166579D02*
X6789111Y-9147531D01*
X6789111Y-9147531D02*
X6798634Y-9118960D01*
X6798634Y-9118960D02*
X6808158Y-9071341D01*
X6808158Y-9071341D02*
X6808158Y-9033246D01*
X6808158Y-9033246D02*
X6798634Y-8985627D01*
X6798634Y-8985627D02*
X6789111Y-8957055D01*
X6789111Y-8957055D02*
X6779587Y-8938008D01*
X6779587Y-8938008D02*
X6760539Y-8909436D01*
X6760539Y-8909436D02*
X6751015Y-8899912D01*
M02*
